<svg xmlns="http://www.w3.org/2000/svg" viewBox="0 0 212.07 262.56"><defs><style>.cls-1{fill:#e9ebee;}</style></defs><title>資產 2</title><g id="圖層_2" data-name="圖層 2"><g id="圖層_1-2" data-name="圖層 1"><g id="_群組_" data-name="&lt;群組&gt;"><path class="cls-1" d="M95.72,9A2.73,2.73,0,0,0,93,6.25H85.73a.21.21,0,0,1-.16-.06A.24.24,0,0,1,85.52,6l0-2.25a.22.22,0,0,1,.1-.19,2.12,2.12,0,0,0,1.19-1.73,1.33,1.33,0,0,0-.32-1,1.27,1.27,0,0,0-.94-.46L78.27,0h-.08a1.44,1.44,0,0,0-1,.38,1.46,1.46,0,0,0-.4,1V6a.2.2,0,0,1-.06.15.18.18,0,0,1-.14.06H69.37A2.73,2.73,0,0,0,66.64,9v1.3a.21.21,0,0,1-.21.21H64.78a.21.21,0,0,1-.21-.21V4.7a.23.23,0,0,1,.13-.2,1.85,1.85,0,0,0,1.18-1.55,1,1,0,0,0-.25-.76,1,1,0,0,0-.72-.35l-7.32-.43h-.06a1.14,1.14,0,0,0-.73.3,1.09,1.09,0,0,0-.31.74v7.83a.21.21,0,0,1-.21.21h-4a1,1,0,0,0-1,1v6a1,1,0,0,0,1,1H55.5a.2.2,0,0,1,.17.08.22.22,0,0,1,0,.18,15.46,15.46,0,0,1-3.86,6.89c-.5.57-1,1.18-1.54,1.87a1.07,1.07,0,0,0-.06,1.15A32.48,32.48,0,0,1,53,34.5a1,1,0,0,0,.81.73l.17,0a1,1,0,0,0,.84-.46l.2-.26a4.77,4.77,0,0,1,1.1-1.21.22.22,0,0,1,.11,0,.17.17,0,0,1,.1,0,.2.2,0,0,1,.1.18V44.85a1,1,0,0,0,1,1h6a1,1,0,0,0,1-1c0-5.23-.08-14,.2-14.41L68,26a.23.23,0,0,1,.16-.08h0a.21.21,0,0,1,.16.06l.12.16a.84.84,0,0,0,.16.18l2.49,1.93a2.72,2.72,0,0,0,1.68.57,2.06,2.06,0,0,0,.37,0c.42-.05.79-.57,1.11-1l.07-.11.07-.1a.21.21,0,0,1,.18-.08.21.21,0,0,1,.16.08l1.07,1.53a.2.2,0,0,1,0,.24l-7.7,10.94A2.72,2.72,0,0,0,68.67,44l2.49,1.93a2.72,2.72,0,0,0,1.68.57l.4,0a2.69,2.69,0,0,0,1.82-1.12L81,36.9a.2.2,0,0,1,.17-.09.21.21,0,0,1,.18.09l6,8.42a2.71,2.71,0,0,0,1.82,1.11,2.79,2.79,0,0,0,.42,0,2.69,2.69,0,0,0,1.65-.57L93.69,44a2.72,2.72,0,0,0,.55-3.73L86.51,29.32a.22.22,0,0,1,0-.25l1.09-1.54a.2.2,0,0,1,.17-.09.2.2,0,0,1,.16.09l.1.15,0,.06c.34.48.73,1,1.16,1.06a2.06,2.06,0,0,0,.38,0,2.68,2.68,0,0,0,1.67-.57l2.49-1.93a2.69,2.69,0,0,0,.54-3.74l-2.33-4a.2.2,0,0,1,0-.1V15.14a.2.2,0,0,1,.21-.21H93a2.74,2.74,0,0,0,2.73-2.73ZM70.41,18.51a.19.19,0,0,1,0,.1l-2.3,3.93a1.6,1.6,0,0,0-.17.34,2,2,0,0,1-.08.2.2.2,0,0,1-.18.12h0a.2.2,0,0,1-.18-.09c-1-1.61-2-3-2.81-4.2a.21.21,0,0,1,.17-.33H67a1,1,0,0,0,1-1V14.91a.24.24,0,0,1,.09-.18.23.23,0,0,1,.11,0h.08a2.54,2.54,0,0,0,1,.22h.83a.2.2,0,0,1,.21.21Zm13,0a.18.18,0,0,1,0,.12l-2,2.88a.22.22,0,0,1-.17.08.19.19,0,0,1-.16-.08l-2-2.86a.21.21,0,0,1,0-.12V15.14a.2.2,0,0,1,.21-.21h4.06a.2.2,0,0,1,.21.21Z"/></g><g id="_群組_2" data-name="&lt;群組&gt;"><g id="_群組_3" data-name="&lt;群組&gt;"><path class="cls-1" d="M88.66,81.92a1.72,1.72,0,0,0-1.73-1.72H59.17a1.69,1.69,0,0,0-1.71,1.72v18.13a1.71,1.71,0,0,0,1.71,1.71h6.08a1.75,1.75,0,0,0,1.68-1.33.2.2,0,0,1,.2-.16H78.68a.2.2,0,0,1,.2.16,1.71,1.71,0,0,0,1.66,1.33h6.39a1.74,1.74,0,0,0,1.73-1.71Zm-9.81,9.65a.76.76,0,0,1-.77.77H67.75a.78.78,0,0,1-.77-.77V88.9a.75.75,0,0,1,.77-.77H78.08a.76.76,0,0,1,.77.77Z"/></g><g id="_群組_4" data-name="&lt;群組&gt;"><path class="cls-1" d="M95.94,73.46a1.5,1.5,0,0,0,.38-1.38,1.55,1.55,0,0,0-.94-1.12A44.51,44.51,0,0,1,78.77,59.32a.21.21,0,0,1,0-.26,2.71,2.71,0,0,0,.42-.81A1.55,1.55,0,0,0,79,56.88a1.52,1.52,0,0,0-1.19-.66l-8.57-.5h-.09a1.55,1.55,0,0,0-1.32.75C64.94,61.26,58,68,50.33,71.72a1.58,1.58,0,0,0-.86,1.17A1.61,1.61,0,0,0,50,74.25a25.9,25.9,0,0,1,3.71,4.81,1.52,1.52,0,0,0,1.33.79,1.32,1.32,0,0,0,.7-.17,33.38,33.38,0,0,0,6.67-4.81.19.19,0,0,1,.13-.05l.08,0a.21.21,0,0,1,.13.19v.59a1.79,1.79,0,0,0,1.79,1.79H81.67a1.77,1.77,0,0,0,1.78-1.75.2.2,0,0,1,.13-.18.11.11,0,0,1,.08,0,.22.22,0,0,1,.14.05,23.45,23.45,0,0,0,6,4.12,1.84,1.84,0,0,0,.74.16,1.51,1.51,0,0,0,1.32-.74A30.84,30.84,0,0,1,95.94,73.46ZM77.47,69.38a.21.21,0,0,1-.19.13H68.16a.21.21,0,0,1-.19-.13.21.21,0,0,1,0-.23c2.1-2.39,3.72-4.48,4.47-5.54a.18.18,0,0,1,.17-.09.2.2,0,0,1,.17.08c.73,1,2.49,3.19,4.62,5.55A.2.2,0,0,1,77.47,69.38Z"/></g></g><g id="_群組_5" data-name="&lt;群組&gt;"><path class="cls-1" d="M41,3.8H6.68A1.79,1.79,0,0,0,4.9,5.58v6.7a1.79,1.79,0,0,0,1.78,1.79H41a1.79,1.79,0,0,0,1.78-1.79V5.58A1.79,1.79,0,0,0,41,3.8Z"/></g><g id="_群組_6" data-name="&lt;群組&gt;"><path class="cls-1" d="M4.48,26.56a1.78,1.78,0,0,0,1.78,1.78H41a1.79,1.79,0,0,0,1.78-1.78V19.91A1.79,1.79,0,0,0,41,18.13H6.26a1.78,1.78,0,0,0-1.78,1.78Z"/></g><g id="_群組_7" data-name="&lt;群組&gt;"><path class="cls-1" d="M4.48,41.58a1.78,1.78,0,0,0,1.78,1.79H41a1.79,1.79,0,0,0,1.78-1.79V34.94A1.79,1.79,0,0,0,41,33.14H6.26a1.78,1.78,0,0,0-1.78,1.79Z"/></g><g id="_群組_8" data-name="&lt;群組&gt;"><g id="_群組_9" data-name="&lt;群組&gt;"><path class="cls-1" d="M25.07,72.41l5.87-8.63a2.27,2.27,0,0,0-.47-3.17l-1.86-1.45a2.36,2.36,0,0,0-1.4-.48,1.93,1.93,0,0,0-.34,0,2.35,2.35,0,0,0-1.56,1l-3.42,5a.19.19,0,0,1-.17.09h-.06a.22.22,0,0,1-.15-.2V59.72a.78.78,0,0,0-.79-.79H2.84a.78.78,0,0,0-.79.79v5.79a.78.78,0,0,0,.79.78h1A.21.21,0,0,1,4,66.5V88a.2.2,0,0,1-.18.21H3.77l-1.85.25a.81.81,0,0,0-.56.34.76.76,0,0,0-.09.64L3.11,96a.81.81,0,0,0,.78.6.57.57,0,0,0,.18,0,1.93,1.93,0,0,0,1.14-.81.2.2,0,0,1,.13-.09c1.79-.41,3.94-.92,6.25-1.47h0a.3.3,0,0,1,.14,0,.25.25,0,0,1,.07.17v6.38a.78.78,0,0,0,.79.79H18a.79.79,0,0,0,.73-.47.21.21,0,0,0,0-.07V70.43a.22.22,0,0,1,.18-.21h0a.19.19,0,0,1,.19.13,2.21,2.21,0,0,0,.74,1.11l1.86,1.45a2.28,2.28,0,0,0,1.4.48,1.93,1.93,0,0,0,.35,0A2.35,2.35,0,0,0,25.07,72.41ZM13.08,87a.45.45,0,0,1-.4.46l-2.54.38h0a.42.42,0,0,1-.3-.12.43.43,0,0,1-.16-.33V83.69a.47.47,0,0,1,.46-.46h2.52a.47.47,0,0,1,.46.46Zm0-9.15a.45.45,0,0,1-.46.46H10.11a.46.46,0,0,1-.46-.46V75.29a.45.45,0,0,1,.46-.46h2.52a.45.45,0,0,1,.46.46Zm0-8.46a.45.45,0,0,1-.46.46H10.11a.46.46,0,0,1-.46-.46V66.75a.46.46,0,0,1,.46-.46h2.52a.45.45,0,0,1,.46.46Zm7.49-2.75L19.42,68.3a2.12,2.12,0,0,0-.25.55A.24.24,0,0,1,19,69h0a.19.19,0,0,1-.19-.19V66.5a.21.21,0,0,1,.22-.21h1.43a.2.2,0,0,1,.19.11A.22.22,0,0,1,20.57,66.63Z"/></g><g id="_群組_10" data-name="&lt;群組&gt;"><path class="cls-1" d="M36.32,76.29l1.85,1.45a2.38,2.38,0,0,0,1.41.48,2.22,2.22,0,0,0,.35,0,2.37,2.37,0,0,0,1.55-.95l1.09-1.52,3.26-4.92a2.29,2.29,0,0,0-.47-3.16L43.51,66.2a2.3,2.3,0,0,0-1.41-.48,2,2,0,0,0-.34,0,2.35,2.35,0,0,0-1.56.95L36,72.82a.09.09,0,0,1,0,.06l-.17.25A2.29,2.29,0,0,0,36.32,76.29Z"/></g><g id="_群組_11" data-name="&lt;群組&gt;"><path class="cls-1" d="M46.46,80.79a.87.87,0,0,0-.19-.64.81.81,0,0,0-.57-.28H45.6l-.27,0-4.94-.3a.21.21,0,0,1-.2-.17.82.82,0,0,0-.56-.28l-6.13-1h0a1.15,1.15,0,0,0-.84.79.18.18,0,0,1-.11.14l-.08,0-.1,0-1.53-.8a.2.2,0,0,1-.11-.19.2.2,0,0,1,.1-.18,2.42,2.42,0,0,0,.83-.69L36,70.95l6.37-9.56a2.26,2.26,0,0,0-.47-3.16l-1.85-1.45a2.31,2.31,0,0,0-1.4-.48l-.34,0a2.42,2.42,0,0,0-1.56,1L29.45,68.11l-3.47,5a2.29,2.29,0,0,0,.46,3.15.22.22,0,0,1,.08.18.22.22,0,0,1-.08.17l-.08-.08,0,0,.05.09a13.65,13.65,0,0,0-.77,2.57.2.2,0,0,1-.2.16h-.05l-4.91-1.07a.87.87,0,0,0-.81.86V94a.82.82,0,0,0,.81.83h2.4A.22.22,0,0,1,23,95a.24.24,0,0,1-.08.24,9.49,9.49,0,0,1-1.9,1,.75.75,0,0,0-.52.61.8.8,0,0,0,.27.78,16.3,16.3,0,0,1,2.75,4.12.76.76,0,0,0,.74.49.86.86,0,0,0,.34-.05,10.82,10.82,0,0,0,7.17-9.12l.05-11.62a.21.21,0,0,1,.1-.17l.15-.09.21-.14.1,0,.1,0a.24.24,0,0,1,.1.19v20.18a.82.82,0,0,0,.78.69h5a.85.85,0,0,0,.84-.86V95a.24.24,0,0,1,.1-.19l.1,0a.2.2,0,0,1,.11,0,.67.67,0,0,0,.41.12h4.59a.83.83,0,0,0,.81-.84V82.31a.22.22,0,0,1,.07-.17.19.19,0,0,1,.07-.05A1.51,1.51,0,0,0,46.46,80.79ZM26.08,87.44a.23.23,0,0,1-.15.2l-.34.13h-.2a.21.21,0,0,1-.21-.21V81.49a.2.2,0,0,1,.13-.2,1.51,1.51,0,0,0,.42-.22.21.21,0,0,1,.13,0A.11.11,0,0,1,26,81a.21.21,0,0,1,.13.19Zm13.61.13a.2.2,0,0,1-.16.2l-.5.12h-.16a.21.21,0,0,1-.21-.21v-7a.22.22,0,0,1,.16-.21,1.53,1.53,0,0,0,.54-.24.28.28,0,0,1,.13,0l.09,0a.23.23,0,0,1,.11.19Z"/></g></g><g id="_群組_12" data-name="&lt;群組&gt;"><g id="_群組_13" data-name="&lt;群組&gt;"><path class="cls-1" d="M18.33,129.07H4.27a1,1,0,0,0-1,1v2.34a1,1,0,0,0,1,1H18.33a1,1,0,0,0,1-1v-2.34A1,1,0,0,0,18.33,129.07Z"/></g><g id="_群組_14" data-name="&lt;群組&gt;"><path class="cls-1" d="M18.34,134.85H4.29a1,1,0,0,0-1,1v2.34a1,1,0,0,0,1,1H18.34a1,1,0,0,0,1-1v-2.34A1,1,0,0,0,18.34,134.85Z"/></g><g id="_群組_15" data-name="&lt;群組&gt;"><path class="cls-1" d="M32.44,115.95a1,1,0,0,0-.23-.73,2.37,2.37,0,0,0-1.12-.33l-7-.42H24a1.08,1.08,0,0,0-.71.29,1.06,1.06,0,0,0-.28.71v13.38a1.79,1.79,0,0,0,1.78,1.78h4.35a1.79,1.79,0,0,0,1.78-1.78V117.52a.22.22,0,0,1,.12-.19C31.81,116.92,32.41,116.28,32.44,115.95Z"/></g><g id="_群組_16" data-name="&lt;群組&gt;"><path class="cls-1" d="M40.86,114.47H36.49a1.79,1.79,0,0,0-1.79,1.79V129.7a1,1,0,0,0,.3.69,1,1,0,0,0,.69.3h.06l.72-.05h.17l5.23-.3.93-.05a.84.84,0,0,0,.67-.34.93.93,0,0,0,.26-.73,1.8,1.8,0,0,0-1-1.4.22.22,0,0,1-.1-.18V116.26A1.79,1.79,0,0,0,40.86,114.47Z"/></g><g id="_群組_17" data-name="&lt;群組&gt;"><path class="cls-1" d="M15.21,115.13,7.9,114.7H7.84a1.15,1.15,0,0,0-.74.3,1.12,1.12,0,0,0-.31.74v4.62a.21.21,0,0,1-.21.21H3a1,1,0,0,0-1,1v5.08a1,1,0,0,0,1,1H19.57a1,1,0,0,0,1-1v-5.08a1,1,0,0,0-1-1H15.08a.21.21,0,0,1-.21-.21V118a.19.19,0,0,1,.13-.19,1.85,1.85,0,0,0,1.17-1.55,1.08,1.08,0,0,0-.24-.76A1,1,0,0,0,15.21,115.13Z"/></g><g id="_群組_18" data-name="&lt;群組&gt;"><path class="cls-1" d="M46.84,152.54a.69.69,0,0,0-.3-1.15,32.08,32.08,0,0,1-7.48-3,.23.23,0,0,1-.1-.14.23.23,0,0,1,0-.16,42.06,42.06,0,0,0,5.71-12.34.15.15,0,0,1,0-.07,2.2,2.2,0,0,0,.52-1,.71.71,0,0,0-.41-.76l-3.55-1.46a.56.56,0,0,0-.26-.05H22.24a.68.68,0,0,0-.68.68v5.56a.69.69,0,0,0,.68.69H23.8a.22.22,0,0,1,.21.17.22.22,0,0,1-.14.24l-.57.2a.67.67,0,0,0-.4.37.76.76,0,0,0,0,.57A23.55,23.55,0,0,0,26.86,148a.21.21,0,0,1,0,.17.22.22,0,0,1-.1.14,25.71,25.71,0,0,1-6.87,2.81h-.05a.21.21,0,0,1-.21-.21v-9.29a1,1,0,0,0-1-1H4.34a1,1,0,0,0-1,1v15.6a1,1,0,0,0,1,1H9.82a1,1,0,0,0,1-1v-.33a.21.21,0,0,1,.21-.21h7.56a1,1,0,0,0,1-1v-2a.22.22,0,0,1,.16-.2h.05a.22.22,0,0,1,.18.09,28.81,28.81,0,0,1,2.49,4.77.69.69,0,0,0,.63.44.79.79,0,0,0,.22,0,34.94,34.94,0,0,0,9.35-4.63.28.28,0,0,1,.13,0,.2.2,0,0,1,.13,0,31.31,31.31,0,0,0,9,4.62.68.68,0,0,0,.21,0,.67.67,0,0,0,.6-.38A27.13,27.13,0,0,1,46.84,152.54ZM12,149.32a.21.21,0,0,1-.21.21h-.75a.21.21,0,0,1-.21-.21V148a.21.21,0,0,1,.21-.21h.75A.21.21,0,0,1,12,148Zm22.68-9.67a19.4,19.4,0,0,1-1.83,2.74.19.19,0,0,1-.16.08.2.2,0,0,1-.16-.07,20.31,20.31,0,0,1-2-2.74.21.21,0,0,1,0-.21.22.22,0,0,1,.19-.1h3.78a.21.21,0,0,1,.19.3Z"/></g></g><g id="_群組_19" data-name="&lt;群組&gt;"><g id="_群組_20" data-name="&lt;群組&gt;"><path class="cls-1" d="M93.43,136a1.79,1.79,0,0,0,1.79-1.79v-4.28a.19.19,0,0,1,.06-.14,3.16,3.16,0,0,0,1-2,2,2,0,0,0-.4-1.35,1.8,1.8,0,0,0-1.28-.64H89.49a.21.21,0,0,1-.21-.21v-7.92a.2.2,0,0,1,.12-.19,2.31,2.31,0,0,0,1.36-1.86,1.43,1.43,0,0,0-.33-1,1.24,1.24,0,0,0-.91-.43l-2.19-.16-4.71-.27-1.87-.13h0a1.8,1.8,0,0,0-1.61,1.56.31.31,0,0,1,0,.1.22.22,0,0,0,0,.13v10.13a.21.21,0,0,1-.21.21H74.93a1.79,1.79,0,0,0-1.78,1.79v6.64A1.79,1.79,0,0,0,74.93,136h3.93a.21.21,0,0,1,.21.21v17.44a.2.2,0,0,1-.09.18,3.08,3.08,0,0,0-1.55,2.46,2.16,2.16,0,0,0,.4,1.36l.07.05.05,0a1.38,1.38,0,0,0,.41.3,1,1,0,0,0,.51.14l1.47.09.72.05,4.71.27,1.88.13h0a1.8,1.8,0,0,0,1.61-1.55.38.38,0,0,1,0-.1.21.21,0,0,0,0-.12V154.8a.17.17,0,0,1,0-.09V136.22a.21.21,0,0,1,.21-.21Z"/></g><g id="_群組_21" data-name="&lt;群組&gt;"><path class="cls-1" d="M68.94,129.07H54.87a1,1,0,0,0-1,1v2.34a1,1,0,0,0,1,1H68.94a1,1,0,0,0,1-1v-2.34A1,1,0,0,0,68.94,129.07Z"/></g><g id="_群組_22" data-name="&lt;群組&gt;"><path class="cls-1" d="M69,134.85H54.89a1,1,0,0,0-1,1v2.34a1,1,0,0,0,1,1H69a1,1,0,0,0,1-1v-2.34A1,1,0,0,0,69,134.85Z"/></g><g id="_群組_23" data-name="&lt;群組&gt;"><path class="cls-1" d="M70.27,141.66a1,1,0,0,0-1-1H54.94a1,1,0,0,0-1,1v15.6a1,1,0,0,0,1,1h5.49a1,1,0,0,0,1-1v-.33a.21.21,0,0,1,.21-.21h7.56a1,1,0,0,0,1-1Zm-7.63,7.66a.21.21,0,0,1-.21.21h-.75a.21.21,0,0,1-.21-.21V148a.21.21,0,0,1,.21-.21h.75a.21.21,0,0,1,.21.21Z"/></g><g id="_群組_24" data-name="&lt;群組&gt;"><path class="cls-1" d="M53.63,120.57a1,1,0,0,0-1,1v5.08a1,1,0,0,0,1,1H70.19a1,1,0,0,0,1-1v-5.08a1,1,0,0,0-1-1h-4.5a.21.21,0,0,1-.21-.21V118a.2.2,0,0,1,.13-.19,1.84,1.84,0,0,0,1.17-1.55,1,1,0,0,0-.24-.76,1,1,0,0,0-.72-.35l-7.31-.43h-.06a1.16,1.16,0,0,0-.73.29,1.12,1.12,0,0,0-.31.75v4.62a.21.21,0,0,1-.21.21Z"/></g></g><g id="_群組_25" data-name="&lt;群組&gt;"><path class="cls-1" d="M142.46,153.25a1.21,1.21,0,0,0,.27-1.15,1.14,1.14,0,0,0-.81-.79,28.78,28.78,0,0,1-3.71-1,.21.21,0,0,1-.15-.17.24.24,0,0,1,.09-.21l.87-.53.3-.19a.2.2,0,0,1,.11,0h.27a2,2,0,0,0,1.69-.75,1.12,1.12,0,0,0,.22-.87,1.1,1.1,0,0,0-.43-.77l-1.73-1.47a.22.22,0,0,1-.06-.23.22.22,0,0,1,.2-.15H141a1.78,1.78,0,0,0,1.78-1.78v-3.52a1.79,1.79,0,0,0-1.78-1.78h-5.67a.21.21,0,0,1-.21-.21v-1.1a.21.21,0,0,1,.21-.21H138a1.79,1.79,0,0,0,1.78-1.79v-3.52a1.79,1.79,0,0,0-1.78-1.78h-2.69a.21.21,0,0,1-.21-.21v-1.12a.22.22,0,0,1,.21-.21h5.08a2.24,2.24,0,0,0,1.37-2.06v-8.44a2.29,2.29,0,0,0-2.29-2.28H111.41a.21.21,0,0,1-.2-.15.88.88,0,0,0-.2-.4.91.91,0,0,0-.68-.34l-7-.41h-.05a1.09,1.09,0,0,0-.71.28,1.1,1.1,0,0,0-.29.71v34.68a.21.21,0,0,1,0,.11l-2.82,4a2.3,2.3,0,0,0,.53,3.17l2.63,1.9a2.42,2.42,0,0,0,1.35.44,2.75,2.75,0,0,0,.38,0,2.21,2.21,0,0,0,1.47-.94l3-4.3a.2.2,0,0,1,.17-.09h0a.25.25,0,0,1,.18.15l1.53,4.76a1.07,1.07,0,0,0,1,.75h.14a1.91,1.91,0,0,0,1.32-.85.22.22,0,0,1,.14-.08c2.18-.39,7.87-1.44,13.64-2.6a1.16,1.16,0,0,0,.86-1.15.21.21,0,0,1,.12-.19.14.14,0,0,1,.08,0,.2.2,0,0,1,.14.05,23.42,23.42,0,0,0,9.6,5,1.13,1.13,0,0,0,.26,0,1,1,0,0,0,.92-.65A24.5,24.5,0,0,1,142.46,153.25Zm-29.82-3.75a.19.19,0,0,1-.19.2l-2.19.24h0a.19.19,0,0,1-.13-.05.18.18,0,0,1-.07-.16v-3.89a.21.21,0,0,1,.21-.21h2.19a.21.21,0,0,1,.21.21Zm3.91-20.43a.21.21,0,0,1-.21.21H113.5a1.79,1.79,0,0,0-1.78,1.78v3.52a1.79,1.79,0,0,0,1.78,1.79h2.83a.22.22,0,0,1,.22.21v1.1a.21.21,0,0,1-.21.21h-6.09a.21.21,0,0,1-.21-.21v-9.76a.21.21,0,0,1,.21-.21h6.09a.22.22,0,0,1,.21.22Zm8.67,20.21a.2.2,0,0,1-.16.13l-5.39.73h0a.24.24,0,0,1-.14-.05.23.23,0,0,1-.07-.16v-4.75a.21.21,0,0,1,.21-.21h3.3a.22.22,0,0,1,.19.12,27.66,27.66,0,0,0,2.08,4A.23.23,0,0,1,125.22,149.28Zm3.12-11.6a.21.21,0,0,1-.21.21h-4.61a.21.21,0,0,1-.21-.21v-1.1a.21.21,0,0,1,.21-.21h4.61a.21.21,0,0,1,.21.21Zm0-8.61a.21.21,0,0,1-.21.21h-4.61a.21.21,0,0,1-.21-.21v-1.13a.2.2,0,0,1,.06-.15.27.27,0,0,1,.15-.06h4.61a.21.21,0,0,1,.21.21Zm4.74,16.32c-.86.64-1.62,1.17-2.32,1.62a.24.24,0,0,1-.11,0,.2.2,0,0,1-.16-.07,15.06,15.06,0,0,1-1.32-1.67.23.23,0,0,1,0-.22.24.24,0,0,1,.19-.11h.61l.15,0H133a.21.21,0,0,1,.2.15A.2.2,0,0,1,133.08,145.39Zm.64-23.55c0,.8-.66.89-1.46.89H112.39c-.8,0-1.46-.09-1.46-.89v-.48c0-.8.66-.84,1.46-.84h19.88c.8,0,1.46,0,1.46.84Z"/></g><g id="_群組_26" data-name="&lt;群組&gt;"><path class="cls-1" d="M5.29,199.12q0-1.31,0-2.57t0-2.5q0-1.47,0-3t-.09-2.94a1.36,1.36,0,0,1,.27-.72,1,1,0,0,1,.86-.35,1.24,1.24,0,0,1,.75.25,1,1,0,0,1,.38.73q0,1.57-.07,3.15t0,3.21v2.38c0,.85,0,1.67,0,2.47v.15a4.81,4.81,0,0,1-.37,2,4.19,4.19,0,0,1-1,1.42,4.1,4.1,0,0,1-1.49.86,5.73,5.73,0,0,1-1.81.28,4.84,4.84,0,0,1-2-.35A1.21,1.21,0,0,1,0,202.42a1.2,1.2,0,0,1,.27-.78,1,1,0,0,1,.82-.34l.23,0a1.21,1.21,0,0,1,.27.09,2.61,2.61,0,0,0,.62.14,5.87,5.87,0,0,0,.62,0A2.43,2.43,0,0,0,4.58,201,2.55,2.55,0,0,0,5.29,199.12Z"/><path class="cls-1" d="M16.33,204a5.81,5.81,0,0,1-2.19-.4,5.16,5.16,0,0,1-1.75-1.15,5.37,5.37,0,0,1-1.17-1.78,6,6,0,0,1-.43-2.29,5.75,5.75,0,0,1,.43-2.23,5.4,5.4,0,0,1,1.17-1.77,5.47,5.47,0,0,1,1.75-1.17,5.53,5.53,0,0,1,2.19-.43,5.5,5.5,0,0,1,3.91,1.6,5.38,5.38,0,0,1,1.17,1.77,5.75,5.75,0,0,1,.43,2.23,6,6,0,0,1-.43,2.29,5.35,5.35,0,0,1-1.17,1.78,5.16,5.16,0,0,1-1.75,1.15A5.76,5.76,0,0,1,16.33,204Zm0-1.86a3.65,3.65,0,0,0,1.39-.26,3.41,3.41,0,0,0,1.14-.75,3.55,3.55,0,0,0,.77-1.18,4,4,0,0,0,.28-1.56,4.13,4.13,0,0,0-.28-1.57,3.55,3.55,0,0,0-.77-1.19,3.4,3.4,0,0,0-1.15-.75,3.75,3.75,0,0,0-2.75,0,3.4,3.4,0,0,0-1.15.75A3.72,3.72,0,0,0,13,196.8a4.39,4.39,0,0,0,0,3.14,3.53,3.53,0,0,0,.78,1.18,3.35,3.35,0,0,0,1.15.75A3.73,3.73,0,0,0,16.33,202.14Z"/><path class="cls-1" d="M25.86,189.72a1.41,1.41,0,0,1-1-.39,1.44,1.44,0,0,1-.42-1.09,1.37,1.37,0,0,1,.14-.66,1.48,1.48,0,0,1,.35-.44,1.29,1.29,0,0,1,.46-.25,1.59,1.59,0,0,1,.47-.08,1.38,1.38,0,0,1,1,.4,1.34,1.34,0,0,1,.43,1,1.57,1.57,0,0,1-.38,1A1.26,1.26,0,0,1,25.86,189.72Zm1,13.18a.93.93,0,0,1-.34.79,1.15,1.15,0,0,1-.71.26,1.08,1.08,0,0,1-.71-.26,1,1,0,0,1-.32-.79v-3.08q0-.87,0-1.76t0-1.67V195c0-.47,0-.85,0-1.16a1,1,0,0,1,.33-.72,1,1,0,0,1,.72-.28,1.1,1.1,0,0,1,.68.25.89.89,0,0,1,.35.69c0,.5,0,1.16,0,2s0,1.72,0,2.67q0,1.18,0,2.34t0,2.08Z"/><path class="cls-1" d="M38.08,202.86c0-.23,0-.51,0-.82s0-.65,0-1,0-.73,0-1.1v-1.08q0-.68,0-1.22c0-.36,0-.63,0-.81a2.24,2.24,0,0,0-.63-1.62,2,2,0,0,0-1.4-.5,2.86,2.86,0,0,0-1.08.23,4,4,0,0,0-1,.62,3.64,3.64,0,0,0-.79.92,2.49,2.49,0,0,0-.36,1.12c0,.2,0,.43,0,.69v.86q0,1.35.07,3.74a1.15,1.15,0,0,1-.19.68.85.85,0,0,1-.8.35,1,1,0,0,1-.67-.27,1.08,1.08,0,0,1-.34-.71q0-1.64.07-2.83t0-2.17q0-1.92-.07-4.07a.84.84,0,0,1,.35-.68,1.12,1.12,0,0,1,.68-.24,1.14,1.14,0,0,1,.68.22.8.8,0,0,1,.31.7.13.13,0,0,1,0,.06.17.17,0,0,0,0,.07V194a.6.6,0,0,0,0,.22s.07,0,.17,0a.37.37,0,0,0,.24-.13,4,4,0,0,1,1.43-1,4.44,4.44,0,0,1,1.65-.33,3.7,3.7,0,0,1,1.31.24,3.57,3.57,0,0,1,1.14.7,3.72,3.72,0,0,1,.83,1.14A4,4,0,0,1,40,196.5c0,.2,0,.48,0,.82s0,.71,0,1.11,0,.82,0,1.27,0,.88,0,1.3v1c0,.31,0,.59,0,.82a1.1,1.1,0,0,1-.32.81,1,1,0,0,1-.67.26,1,1,0,0,1-.7-.26.92.92,0,0,1-.31-.74Z"/><path class="cls-1" d="M46.67,194.84c-.25,0-.39,0-.44.12a.57.57,0,0,0-.07.27v.68c0,.28,0,.58,0,.92s0,.87,0,1.33,0,.91,0,1.33,0,.86,0,1.19a2.22,2.22,0,0,0,.19.81,1,1,0,0,0,.46.47,2.29,2.29,0,0,0,1.38.09h.15a.72.72,0,0,1,.59.27.94.94,0,0,1,.22.6.86.86,0,0,1-.48.81,2.65,2.65,0,0,1-1.27.26,3.11,3.11,0,0,1-1.82-.46,2.81,2.81,0,0,1-.94-1.08,3.66,3.66,0,0,1-.35-1.26c0-.42-.05-.75-.05-1V199c0-.45,0-.91,0-1.38s0-.75,0-1.1,0-.66,0-.91v-.33c0-.22,0-.35-.14-.39a1,1,0,0,0-.4-.06H43a.75.75,0,0,1-.62-.28,1,1,0,0,1,0-1.29A.75.75,0,0,1,43,193h.66c.25,0,.4,0,.47-.13a.61.61,0,0,0,.1-.37v-.28c0-.09,0-.19,0-.31s0-.24,0-.37v-.42a3.49,3.49,0,0,0,0-.42.9.9,0,0,1,.31-.69,1,1,0,0,1,.66-.23,1,1,0,0,1,.58.15,1,1,0,0,1,.31.36,1.08,1.08,0,0,1,.11.42c0,.14,0,.24,0,.3s0,.33,0,.5,0,.34,0,.48,0,.33,0,.5,0,.39.11.44a.77.77,0,0,0,.37.07h1.53a.72.72,0,0,1,.63.28,1.13,1.13,0,0,1,.2.66,1.09,1.09,0,0,1-.2.63.72.72,0,0,1-.63.28Z"/><path class="cls-1" d="M58.11,199.45H56.95l-1,0-.87,0H53.29l-1.21.06a.91.91,0,0,1-.46-.11.85.85,0,0,1-.31-.27,1.23,1.23,0,0,1-.16-.37,1.44,1.44,0,0,1-.06-.38,1.34,1.34,0,0,1,.23-.73.79.79,0,0,1,.67-.38l1.29,0,1.4,0h.83l.9,0,.9,0h.81a1,1,0,0,1,.74.38,1.17,1.17,0,0,1,.26.73,1.36,1.36,0,0,1-.24.79.84.84,0,0,1-.74.35Z"/><path class="cls-1" d="M68.67,200.81a2.72,2.72,0,0,1-.29,1.22,3.32,3.32,0,0,1-.8,1,3.9,3.9,0,0,1-1.19.7,4.17,4.17,0,0,1-1.5.26,5.33,5.33,0,0,1-1.69-.24,4.06,4.06,0,0,1-1.17-.59,2.59,2.59,0,0,1-.68-.72,1.32,1.32,0,0,1-.22-.63.88.88,0,0,1,.31-.69,1,1,0,0,1,.68-.27.88.88,0,0,1,.39.1,1.06,1.06,0,0,1,.37.34,2.76,2.76,0,0,0,.74.58,2.52,2.52,0,0,0,1.25.27,2.63,2.63,0,0,0,.85-.12,1.75,1.75,0,0,0,.58-.32,1.17,1.17,0,0,0,.33-.43,1.14,1.14,0,0,0,.1-.45,1.08,1.08,0,0,0-.13-.52,1.82,1.82,0,0,0-.49-.51,7.87,7.87,0,0,0-1-.61q-.63-.34-1.66-.82A3,3,0,0,1,62,197.22a2.92,2.92,0,0,1-.46-1.55,2.81,2.81,0,0,1,.85-2,3.16,3.16,0,0,1,1-.66,3.59,3.59,0,0,1,1.38-.25,5.22,5.22,0,0,1,1.36.16,4.21,4.21,0,0,1,1,.42,2.27,2.27,0,0,1,.67.57,1,1,0,0,1,.24.62,1,1,0,0,1-.27.72.89.89,0,0,1-.67.28,1,1,0,0,1-.68-.26,3.64,3.64,0,0,0-.64-.49,1.94,1.94,0,0,0-1-.25,1.46,1.46,0,0,0-1,.33,1,1,0,0,0-.36.74,1,1,0,0,0,.22.58,1.77,1.77,0,0,0,.66.51h0l.85.44.72.34c.26.12.5.25.7.36a4.86,4.86,0,0,1,1.6,1.41A2.77,2.77,0,0,1,68.67,200.81Z"/><path class="cls-1" d="M80.45,201.53a1.33,1.33,0,0,1-.33.78,3.63,3.63,0,0,1-.92.81,5.61,5.61,0,0,1-1.4.63,5.89,5.89,0,0,1-1.75.25,5.46,5.46,0,0,1-2.52-.54,5.13,5.13,0,0,1-2.65-3.13,6.4,6.4,0,0,1-.29-1.87,6.08,6.08,0,0,1,.38-2.14,5.69,5.69,0,0,1,1.09-1.83,5.15,5.15,0,0,1,1.74-1.27,5.92,5.92,0,0,1,3.91-.25,4.69,4.69,0,0,1,1.24.56,3,3,0,0,1,.8.73A1.3,1.3,0,0,1,80,195a1,1,0,0,1-1,1,1.15,1.15,0,0,1-.83-.46,2.27,2.27,0,0,0-1-.69,3.32,3.32,0,0,0-1.22-.23,3.33,3.33,0,0,0-2.49,1.06,3.61,3.61,0,0,0-.72,1.17,4,4,0,0,0-.26,1.47,6.83,6.83,0,0,0,.09.79,3.78,3.78,0,0,0,.44,1.23,3.32,3.32,0,0,0,1.06,1.14A3.35,3.35,0,0,0,76,202a3.7,3.7,0,0,0,1.44-.29,2.67,2.67,0,0,0,1.09-.8,1.14,1.14,0,0,1,.4-.33,1,1,0,0,1,.4-.11,1.06,1.06,0,0,1,.74.31A1,1,0,0,1,80.45,201.53Z"/><path class="cls-1" d="M90.24,202.84c0-.47,0-1.07,0-1.81s0-1.46,0-2.14c0-.41,0-.8,0-1.16s0-.64,0-.83a2.91,2.91,0,0,0-.25-1,2.28,2.28,0,0,0-.52-.72,2.17,2.17,0,0,0-.71-.43,2.32,2.32,0,0,0-.81-.14,3,3,0,0,0-1,.19,3.3,3.3,0,0,0-.94.52,3,3,0,0,0-.71.81,2.31,2.31,0,0,0-.33,1c0,.21,0,.45,0,.74v1q0,1.59.06,4a1.21,1.21,0,0,1-.18.69.84.84,0,0,1-.8.36,1,1,0,0,1-.66-.27,1.1,1.1,0,0,1-.34-.73q0-.81,0-1.77c0-.64,0-1.3,0-2s0-1.39,0-2.11v-2.15c0-.81,0-1.61,0-2.38s0-1.5,0-2.19v-2.47a.8.8,0,0,1,.32-.68,1.11,1.11,0,0,1,1.37,0,.83.83,0,0,1,.31.71c0,.19,0,.44,0,.75s0,.57,0,.75q0,.66,0,1.3c0,.43,0,.83,0,1.2s0,.7,0,1,0,.5,0,.64a.63.63,0,0,0,0,.2s.08.07.2.07a.31.31,0,0,0,.17,0,4.52,4.52,0,0,1,1.38-.7,5.22,5.22,0,0,1,1.62-.26,4.48,4.48,0,0,1,1.34.21,3.36,3.36,0,0,1,1.19.65,3.59,3.59,0,0,1,.87,1.16,4.31,4.31,0,0,1,.39,1.72c0,.2,0,.48,0,.82s0,.72,0,1.13,0,.83,0,1.28,0,.87,0,1.28v1q0,.46,0,.81a1.12,1.12,0,0,1-.32.83,1,1,0,0,1-.67.26,1,1,0,0,1-.7-.26,1,1,0,0,1-.31-.76Z"/><path class="cls-1" d="M100.34,204a5.82,5.82,0,0,1-2.19-.4,5.16,5.16,0,0,1-1.75-1.15,5.37,5.37,0,0,1-1.17-1.78,6,6,0,0,1-.43-2.29,5.75,5.75,0,0,1,.43-2.23,5.4,5.4,0,0,1,1.17-1.77,5.46,5.46,0,0,1,1.75-1.17,5.54,5.54,0,0,1,2.19-.43,5.49,5.49,0,0,1,3.91,1.6,5.37,5.37,0,0,1,1.17,1.77,5.75,5.75,0,0,1,.43,2.23,6,6,0,0,1-.43,2.29,5.34,5.34,0,0,1-1.17,1.78,5.16,5.16,0,0,1-1.75,1.15A5.76,5.76,0,0,1,100.34,204Zm0-1.86a3.66,3.66,0,0,0,1.39-.26,3.42,3.42,0,0,0,1.14-.75,3.57,3.57,0,0,0,.77-1.18,4.06,4.06,0,0,0,.28-1.56,4.14,4.14,0,0,0-.28-1.57,3.57,3.57,0,0,0-.77-1.19,3.41,3.41,0,0,0-1.15-.75,3.75,3.75,0,0,0-2.75,0,3.4,3.4,0,0,0-1.15.75A3.72,3.72,0,0,0,97,196.8a4.39,4.39,0,0,0,0,3.14,3.54,3.54,0,0,0,.78,1.18,3.36,3.36,0,0,0,1.15.75A3.73,3.73,0,0,0,100.34,202.14Z"/><path class="cls-1" d="M113.37,204a5.82,5.82,0,0,1-2.19-.4,5.16,5.16,0,0,1-1.75-1.15,5.37,5.37,0,0,1-1.17-1.78,6,6,0,0,1-.43-2.29,5.75,5.75,0,0,1,.43-2.23,5.4,5.4,0,0,1,1.17-1.77,5.46,5.46,0,0,1,1.75-1.17,5.76,5.76,0,0,1,4.35,0,5.46,5.46,0,0,1,1.75,1.17,5.37,5.37,0,0,1,1.17,1.77,5.75,5.75,0,0,1,.43,2.23,6,6,0,0,1-.43,2.29,5.34,5.34,0,0,1-1.17,1.78,5.16,5.16,0,0,1-1.75,1.15A5.76,5.76,0,0,1,113.37,204Zm0-1.86a3.66,3.66,0,0,0,1.39-.26,3.42,3.42,0,0,0,1.14-.75,3.56,3.56,0,0,0,.77-1.18,4.05,4.05,0,0,0,.28-1.56,4.13,4.13,0,0,0-.28-1.57,3.56,3.56,0,0,0-.77-1.19,3.41,3.41,0,0,0-1.15-.75,3.75,3.75,0,0,0-2.75,0,3.4,3.4,0,0,0-1.15.75,3.72,3.72,0,0,0-.79,1.19,4.39,4.39,0,0,0,0,3.14,3.54,3.54,0,0,0,.78,1.18,3.36,3.36,0,0,0,1.15.75A3.73,3.73,0,0,0,113.37,202.14Z"/><path class="cls-1" d="M121.85,202.71c0-.39,0-.88,0-1.46s0-1.22,0-1.9v-8.56c0-.6,0-1.14,0-1.61s0-.83,0-1.09a1.22,1.22,0,0,1,.34-.83,1,1,0,0,1,1.42,0,1.19,1.19,0,0,1,.36.8q0,.44,0,1.27t0,1.92q0,1.09,0,2.37t0,2.59v1.74q0,.88,0,1.74t0,1.64q0,.79,0,1.42a1.17,1.17,0,0,1-.36.81,1,1,0,0,1-.69.28,1.16,1.16,0,0,1-.74-.26,1,1,0,0,1-.33-.81Z"/><path class="cls-1" d="M134.27,200.81A2.71,2.71,0,0,1,134,202a3.34,3.34,0,0,1-.8,1,4,4,0,0,1-1.19.7,4.18,4.18,0,0,1-1.5.26,5.34,5.34,0,0,1-1.69-.24,4.09,4.09,0,0,1-1.17-.59,2.58,2.58,0,0,1-.68-.72,1.32,1.32,0,0,1-.22-.63.89.89,0,0,1,.31-.69,1,1,0,0,1,.68-.27.88.88,0,0,1,.39.1,1.06,1.06,0,0,1,.37.34,2.77,2.77,0,0,0,.74.58,2.51,2.51,0,0,0,1.24.27,2.64,2.64,0,0,0,.85-.12,1.77,1.77,0,0,0,.58-.32,1.16,1.16,0,0,0,.33-.43,1.14,1.14,0,0,0,.1-.45,1.08,1.08,0,0,0-.13-.52,1.8,1.8,0,0,0-.49-.51,7.88,7.88,0,0,0-1-.61q-.63-.34-1.66-.82a3,3,0,0,1-1.47-1.16,2.92,2.92,0,0,1-.46-1.55,2.8,2.8,0,0,1,.85-2,3.16,3.16,0,0,1,1-.66,3.59,3.59,0,0,1,1.38-.25,5.21,5.21,0,0,1,1.36.16,4.24,4.24,0,0,1,1,.42,2.31,2.31,0,0,1,.67.57,1,1,0,0,1,.24.62,1,1,0,0,1-.27.72.88.88,0,0,1-.67.28,1,1,0,0,1-.68-.26,3.58,3.58,0,0,0-.64-.49,1.93,1.93,0,0,0-1-.25,1.46,1.46,0,0,0-1,.33,1,1,0,0,0-.36.74,1,1,0,0,0,.22.58,1.76,1.76,0,0,0,.65.51h0l.85.44.72.34c.26.12.5.25.7.36a4.82,4.82,0,0,1,1.6,1.41A2.76,2.76,0,0,1,134.27,200.81Z"/><path class="cls-1" d="M159,195.43a10.45,10.45,0,0,1-.55,3.62,7.37,7.37,0,0,1-1.42,2.44,6.3,6.3,0,0,1-1.95,1.47,10,10,0,0,1-2.14.75,11.59,11.59,0,0,1-2,.28c-.62,0-1.12,0-1.5,0s-.91,0-1.46-.07a5.49,5.49,0,0,1-1.58-.36,3.45,3.45,0,0,1-1.31-.91,2.88,2.88,0,0,1-.67-1.71q0-.83-.08-2.1t0-2.69q0-.9,0-1.81c0-.61,0-1.19,0-1.75s0-1.07,0-1.54,0-.86,0-1.17a3.41,3.41,0,0,1,.5-1.67,2.61,2.61,0,0,1,1.09-.91,4.77,4.77,0,0,1,1.55-.38q.87-.08,1.86-.08h1l.71,0a9.36,9.36,0,0,1,3.37.82,7.54,7.54,0,0,1,2.47,1.83,7.74,7.74,0,0,1,1.52,2.62A9.81,9.81,0,0,1,159,195.43Zm-8.66-6.34h-1.2q-.44,0-.87,0a3.25,3.25,0,0,0-.8.15,1.44,1.44,0,0,0-.6.37,1.05,1.05,0,0,0-.26.71c0,.23,0,.56,0,1s0,.9,0,1.43,0,1.1,0,1.71,0,1.21,0,1.82q0,1.35,0,2.52c0,.77.05,1.37.1,1.79a1.54,1.54,0,0,0,.21.69,1.14,1.14,0,0,0,.5.4,2.66,2.66,0,0,0,.85.2c.34,0,.77,0,1.28,0l1.39,0a9.24,9.24,0,0,0,1.57-.21,6.63,6.63,0,0,0,1.57-.57A4.35,4.35,0,0,0,155.4,200a5.64,5.64,0,0,0,1-1.84,8.75,8.75,0,0,0,.37-2.73,7.75,7.75,0,0,0-.4-2.55,5.88,5.88,0,0,0-1.16-2,5.29,5.29,0,0,0-1.82-1.31,5.86,5.86,0,0,0-2.39-.47Z"/><path class="cls-1" d="M171,202.2a7.22,7.22,0,0,1-.83.75,4.85,4.85,0,0,1-1,.58,5.3,5.3,0,0,1-1.18.37,7.62,7.62,0,0,1-1.49.13,5.17,5.17,0,0,1-2.08-.42,5,5,0,0,1-1.66-1.15,5.22,5.22,0,0,1-1.09-1.76,6.32,6.32,0,0,1-.39-2.27,6.2,6.2,0,0,1,.41-2.3,5.71,5.71,0,0,1,1.11-1.8,5,5,0,0,1,1.65-1.18,4.85,4.85,0,0,1,2-.43,5.06,5.06,0,0,1,2,.37A5,5,0,0,1,170,194a4.08,4.08,0,0,1,.92,1.26,3.13,3.13,0,0,1,.32,1.3,1.8,1.8,0,0,1-.48,1.28,2.08,2.08,0,0,1-1.49.56h-5.55a.29.29,0,0,0-.29.16,1,1,0,0,0-.08.4,3.12,3.12,0,0,0,.27,1.33,3,3,0,0,0,.72,1,3.18,3.18,0,0,0,1,.62,3.49,3.49,0,0,0,1.22.22,3.67,3.67,0,0,0,1-.13,3.89,3.89,0,0,0,.83-.34,4.5,4.5,0,0,0,.68-.46,5.46,5.46,0,0,0,.55-.51,1,1,0,0,1,.34-.23.88.88,0,0,1,.32-.08,1,1,0,0,1,1,1,1.3,1.3,0,0,1-.05.36A.85.85,0,0,1,171,202.2Zm-2.4-5.34a.65.65,0,0,0,.45-.2.61.61,0,0,0,.16-.44,1.37,1.37,0,0,0-.12-.43,2,2,0,0,0-.42-.6,2.54,2.54,0,0,0-.82-.53,3.34,3.34,0,0,0-1.33-.23,2.92,2.92,0,0,0-1.29.27,3.68,3.68,0,0,0-.95.63,3.2,3.2,0,0,0-.58.7,1.18,1.18,0,0,0-.2.49.28.28,0,0,0,.08.21.61.61,0,0,0,.34.11,6.52,6.52,0,0,0,.75,0h2.74l1.16,0Z"/><path class="cls-1" d="M180.46,200.81a2.7,2.7,0,0,1-.3,1.22,3.31,3.31,0,0,1-.8,1,3.93,3.93,0,0,1-1.19.7,4.18,4.18,0,0,1-1.5.26,5.33,5.33,0,0,1-1.69-.24,4.09,4.09,0,0,1-1.17-.59,2.6,2.6,0,0,1-.68-.72,1.32,1.32,0,0,1-.22-.63.88.88,0,0,1,.31-.69,1,1,0,0,1,.68-.27.88.88,0,0,1,.39.1,1.06,1.06,0,0,1,.37.34,2.77,2.77,0,0,0,.74.58,2.51,2.51,0,0,0,1.25.27,2.63,2.63,0,0,0,.85-.12,1.76,1.76,0,0,0,.58-.32,1.16,1.16,0,0,0,.33-.43,1.11,1.11,0,0,0,.1-.45,1.08,1.08,0,0,0-.13-.52,1.76,1.76,0,0,0-.49-.51,7.73,7.73,0,0,0-1-.61q-.63-.34-1.66-.82a3,3,0,0,1-1.46-1.16,2.91,2.91,0,0,1-.46-1.55,2.81,2.81,0,0,1,.85-2,3.19,3.19,0,0,1,1-.66,3.59,3.59,0,0,1,1.38-.25,5.21,5.21,0,0,1,1.35.16,4.25,4.25,0,0,1,1,.42,2.29,2.29,0,0,1,.67.57,1,1,0,0,1,.24.62,1,1,0,0,1-.27.72.89.89,0,0,1-.67.28,1,1,0,0,1-.68-.26,3.63,3.63,0,0,0-.64-.49,1.94,1.94,0,0,0-1-.25,1.46,1.46,0,0,0-1,.33,1,1,0,0,0-.36.74,1,1,0,0,0,.22.58,1.77,1.77,0,0,0,.66.51h0l.85.44.72.34c.26.12.5.25.7.36a4.86,4.86,0,0,1,1.6,1.41A2.77,2.77,0,0,1,180.46,200.81Z"/><path class="cls-1" d="M184.4,189.72a1.41,1.41,0,0,1-1-.39,1.43,1.43,0,0,1-.42-1.09,1.34,1.34,0,0,1,.14-.66,1.47,1.47,0,0,1,.35-.44,1.27,1.27,0,0,1,.46-.25,1.6,1.6,0,0,1,.47-.08,1.38,1.38,0,0,1,1,.4,1.34,1.34,0,0,1,.43,1,1.56,1.56,0,0,1-.38,1A1.25,1.25,0,0,1,184.4,189.72Zm1,13.18a.93.93,0,0,1-.34.79,1.15,1.15,0,0,1-.71.26,1.08,1.08,0,0,1-.71-.26,1,1,0,0,1-.32-.79v-3.08q0-.87,0-1.76t0-1.67V195c0-.47,0-.85,0-1.16a1,1,0,0,1,.33-.72,1,1,0,0,1,.72-.28,1.1,1.1,0,0,1,.68.25.88.88,0,0,1,.35.69c0,.5,0,1.16,0,2s0,1.72,0,2.67q0,1.18,0,2.34t0,2.08Z"/><path class="cls-1" d="M193.56,200.26a7.45,7.45,0,0,0-.85.05,4,4,0,0,0-.86.2,2,2,0,0,0-.68.38.77.77,0,0,0-.27.61.47.47,0,0,0,.1.32.85.85,0,0,0,.49.19,10.74,10.74,0,0,0,1.17.1q.77,0,2.11,0a7.33,7.33,0,0,1,2.12.27,4.41,4.41,0,0,1,1.47.73,2.92,2.92,0,0,1,.86,1.07,3,3,0,0,1,.28,1.29,3.52,3.52,0,0,1-.49,1.9,3.94,3.94,0,0,1-1.31,1.29,6.18,6.18,0,0,1-1.87.74,9.7,9.7,0,0,1-2.16.24,8.39,8.39,0,0,1-2.52-.33,5.09,5.09,0,0,1-1.66-.84,3.24,3.24,0,0,1-.92-1.11,2.68,2.68,0,0,1-.28-1.15,2.08,2.08,0,0,1,.57-1.46,3.66,3.66,0,0,1,1.33-.92.49.49,0,0,0,.15-.12.22.22,0,0,0,.07-.12.21.21,0,0,0-.07-.15.62.62,0,0,0-.28-.11,1.35,1.35,0,0,1-.84-.61,1.73,1.73,0,0,1-.25-.87,2.13,2.13,0,0,1,1.25-1.92l0,0,0,0,0,0,.15-.09a.15.15,0,0,0,.07-.13c0-.07-.1-.2-.31-.39a3,3,0,0,1-1-1.25,3.65,3.65,0,0,1-.33-1.44,3.58,3.58,0,0,1,.37-1.66,3.63,3.63,0,0,1,1-1.2,4.29,4.29,0,0,1,1.39-.72,5.22,5.22,0,0,1,1.56-.24,5.79,5.79,0,0,1,2.49.52h0a.88.88,0,0,0,.46.13.72.72,0,0,0,.24,0l.22-.09a3.18,3.18,0,0,1,1.42-.46l.47,0a1.29,1.29,0,0,1,.47.13,1,1,0,0,1,.36.32,1.16,1.16,0,0,1-.06,1.2.68.68,0,0,1-.59.27l-.2,0-.17,0h-.15a1,1,0,0,0-.32,0l-.21.09,0,0a.25.25,0,0,0-.2.24.59.59,0,0,0,0,.17,4,4,0,0,1,.15.58,4.38,4.38,0,0,1,0,.71,3.41,3.41,0,0,1-1,2.59A4.59,4.59,0,0,1,193.56,200.26Zm3.91,5.4a1.62,1.62,0,0,0-.33-1.08,1.88,1.88,0,0,0-.87-.56,4.8,4.8,0,0,0-1.22-.21c-.45,0-.9,0-1.36,0a4.53,4.53,0,0,0-1.87.32,3.24,3.24,0,0,0-1,.71,1.92,1.92,0,0,0-.46.75,2.39,2.39,0,0,0-.1.47,2.63,2.63,0,0,0,.07.39,1.37,1.37,0,0,0,.4.65,2.93,2.93,0,0,0,1,.6,6,6,0,0,0,2,.26l.85,0a4.69,4.69,0,0,0,1.26-.27,3.32,3.32,0,0,0,1.14-.68A1.64,1.64,0,0,0,197.47,205.66Zm-1.55-9.12a2.2,2.2,0,0,0-.14-.79,1.86,1.86,0,0,0-.45-.67,2.23,2.23,0,0,0-.8-.47,3.51,3.51,0,0,0-1.17-.17,2.81,2.81,0,0,0-1.84.59,1.89,1.89,0,0,0-.72,1.53,3,3,0,0,0,.08.6,1.64,1.64,0,0,0,.34.69,2.16,2.16,0,0,0,.75.57,3,3,0,0,0,1.3.24,3.82,3.82,0,0,0,1-.13,2.57,2.57,0,0,0,.84-.39,1.94,1.94,0,0,0,.58-.67A1.92,1.92,0,0,0,195.92,196.54Z"/><path class="cls-1" d="M209,202.86c0-.23,0-.51,0-.82s0-.65,0-1,0-.73,0-1.1v-1.08q0-.68,0-1.22c0-.36,0-.63,0-.81a2.24,2.24,0,0,0-.63-1.62,2,2,0,0,0-1.4-.5,2.86,2.86,0,0,0-1.08.23,4,4,0,0,0-1,.62,3.64,3.64,0,0,0-.79.92,2.49,2.49,0,0,0-.36,1.12c0,.2,0,.43,0,.69v.86q0,1.35.07,3.74a1.15,1.15,0,0,1-.19.68.85.85,0,0,1-.8.35,1,1,0,0,1-.67-.27,1.08,1.08,0,0,1-.34-.71q0-1.64.07-2.83t0-2.17q0-1.92-.07-4.07a.84.84,0,0,1,.35-.68,1.12,1.12,0,0,1,.68-.24,1.14,1.14,0,0,1,.68.22.8.8,0,0,1,.31.7.13.13,0,0,1,0,.06.17.17,0,0,0,0,.07V194a.6.6,0,0,0,0,.22s.07,0,.17,0a.37.37,0,0,0,.24-.13,4,4,0,0,1,1.43-1,4.44,4.44,0,0,1,1.65-.33,3.7,3.7,0,0,1,1.31.24,3.57,3.57,0,0,1,1.14.7,3.72,3.72,0,0,1,.83,1.14,4,4,0,0,1,.37,1.55c0,.2,0,.48,0,.82s0,.71,0,1.11,0,.82,0,1.27,0,.88,0,1.3v1c0,.31,0,.59,0,.82a1.1,1.1,0,0,1-.32.81,1,1,0,0,1-.67.26,1,1,0,0,1-.7-.26.92.92,0,0,1-.31-.74Z"/><path class="cls-1" d="M13,225.29h-1l-.79,0-.84,0a1,1,0,0,1-.74-.39,1.28,1.28,0,0,1-.26-.79,1.07,1.07,0,0,1,.14-.6.85.85,0,0,1,.37-.31,1.58,1.58,0,0,1,.5-.12l.51,0h.92l.92,0h1.25a2.49,2.49,0,0,1,1.92.63,2.33,2.33,0,0,1,.57,1.62,5.93,5.93,0,0,1-.44,2.09,6.86,6.86,0,0,1-1.34,2.15,7.4,7.4,0,0,1-2.32,1.68A7.7,7.7,0,0,1,9.1,232a8.42,8.42,0,0,1-3.16-.6,8,8,0,0,1-2.62-1.7,7.9,7.9,0,0,1-1.78-2.66,8.86,8.86,0,0,1-.66-3.47,9.37,9.37,0,0,1,.58-3.26,8.64,8.64,0,0,1,1.67-2.8,8.11,8.11,0,0,1,2.67-2,8.4,8.4,0,0,1,3.58-.73,8.06,8.06,0,0,1,2.36.33,7.65,7.65,0,0,1,1.84.81,4.56,4.56,0,0,1,1.19,1,1.67,1.67,0,0,1,.43,1,1.22,1.22,0,0,1-.35.88,1.14,1.14,0,0,1-.85.36,1.31,1.31,0,0,1-1-.55,4.1,4.1,0,0,0-1.69-1.23,5.72,5.72,0,0,0-2.13-.4,5.67,5.67,0,0,0-2.65.59,5.8,5.8,0,0,0-1.88,1.52,6.53,6.53,0,0,0-1.11,2.08,7.27,7.27,0,0,0-.37,2.24,7.1,7.1,0,0,0,.37,2.25,6,6,0,0,0,1.11,2,5.71,5.71,0,0,0,1.86,1.42,5.86,5.86,0,0,0,2.6.55,5.2,5.2,0,0,0,2.38-.48,5.09,5.09,0,0,0,1.5-1.1,3.82,3.82,0,0,0,.77-1.22A3,3,0,0,0,14,226a.64.64,0,0,0-.26-.56,1.07,1.07,0,0,0-.63-.19Z"/><path class="cls-1" d="M20.77,231.87a1,1,0,0,1-.68-.27,1.06,1.06,0,0,1-.35-.71q.06-1.64.09-2.83c0-.79,0-1.52,0-2.18s0-1.32,0-2,0-1.36-.06-2.08a.84.84,0,0,1,.36-.68,1.19,1.19,0,0,1,.69-.24,1.16,1.16,0,0,1,.67.22.79.79,0,0,1,.32.7.15.15,0,0,1,0,.06.16.16,0,0,0,0,.07v.2a.26.26,0,0,0,0,.15s.09,0,.21,0l.07,0a.55.55,0,0,0,.13-.11,4,4,0,0,1,1.43-1,3.69,3.69,0,0,1,1.3-.31.84.84,0,0,1,.68.28,1,1,0,0,1,.24.66,1.1,1.1,0,0,1-.27.72,1.23,1.23,0,0,1-.84.39,3.38,3.38,0,0,0-1,.32,4.47,4.47,0,0,0-1,.62,3.37,3.37,0,0,0-.72.85,2.36,2.36,0,0,0-.33,1c0,.2,0,.42,0,.67v.8c0,.45,0,1,0,1.55s0,1.28.05,2.08a1.14,1.14,0,0,1-.2.68A.85.85,0,0,1,20.77,231.87Z"/><path class="cls-1" d="M36.88,231.72a.77.77,0,0,1-.33-.09l-.39-.22a2.18,2.18,0,0,1-.55-.7.27.27,0,0,0-.12-.1.36.36,0,0,0-.14,0,.36.36,0,0,0-.26.11,3.72,3.72,0,0,1-1.5,1,5.38,5.38,0,0,1-1.91.35,4,4,0,0,1-1.59-.29,3.74,3.74,0,0,1-1.18-.79,3.36,3.36,0,0,1-.74-1.1,3.24,3.24,0,0,1-.25-1.25,2.79,2.79,0,0,1,.49-1.57A3,3,0,0,1,30,225.9q.59-.22,1.21-.39l1.15-.31.92-.22a3.27,3.27,0,0,1,.52-.09.56.56,0,0,0,.43-.25,1.09,1.09,0,0,0,.16-.64c0-.07,0-.2,0-.37a1.25,1.25,0,0,0-.21-.52,1.59,1.59,0,0,0-.54-.47,2.05,2.05,0,0,0-1-.21,3,3,0,0,0-1.42.32,3.29,3.29,0,0,0-.92.69,1,1,0,0,1-.36.27.93.93,0,0,1-.34.08.92.92,0,0,1-.66-.25.88.88,0,0,1-.26-.67,1.17,1.17,0,0,1,.33-.75,3.08,3.08,0,0,1,.89-.69,6.14,6.14,0,0,1,2.86-.7,3.85,3.85,0,0,1,2.74.9,3.68,3.68,0,0,1,1,2.8,4.4,4.4,0,0,1-.07.74v.13c0,.19-.05.47-.08.84s0,.72,0,1v.3a1.44,1.44,0,0,0,0,.26,3.94,3.94,0,0,0,.24.93,2.48,2.48,0,0,0,.33.58,1.42,1.42,0,0,0,.35.33l.3.18-.06,0,.13.09a.91.91,0,0,1,.28.7,1.38,1.38,0,0,1-.27.82A.82.82,0,0,1,36.88,231.72ZM34,226.54a12.73,12.73,0,0,0-2.33.45,4.8,4.8,0,0,0-1.26.57,1.29,1.29,0,0,0-.51.58,1.56,1.56,0,0,0-.1.5,1.48,1.48,0,0,0,.49,1.06,1.94,1.94,0,0,0,1.43.49,2.87,2.87,0,0,0,2.15-.7,2.74,2.74,0,0,0,.67-2,2.61,2.61,0,0,0-.09-.66.4.4,0,0,0-.42-.33Z"/><path class="cls-1" d="M51.2,230.67a1,1,0,0,1-.35.81,1.17,1.17,0,0,1-.79.31,1.1,1.1,0,0,1-.31,0,.63.63,0,0,1-.29-.19,1.77,1.77,0,0,1-.26-.4,3.57,3.57,0,0,1-.24-.7v0c0-.16-.13-.24-.26-.24a.27.27,0,0,0-.16,0l-.1.09a5,5,0,0,1-1.51,1.13,4.32,4.32,0,0,1-1.92.43,5.45,5.45,0,0,1-2.11-.4,5.08,5.08,0,0,1-2.82-2.9,6.16,6.16,0,0,1-.4-2.27,6,6,0,0,1,.4-2.22,5.16,5.16,0,0,1,2.82-2.9,5.33,5.33,0,0,1,2.11-.41,4.43,4.43,0,0,1,1.71.32,4.76,4.76,0,0,1,1.35.84h0a.19.19,0,0,0,.11.06h.11c.16,0,.24-.07.24-.22q0-1,0-1.89c0-.61,0-1.16,0-1.67s0-1,0-1.35,0-.71,0-.94a1,1,0,0,1,.27-.78,1,1,0,0,1,.71-.29,1.06,1.06,0,0,1,.69.26,1,1,0,0,1,.32.81v.11q0,.57-.06,1.71t0,2.58v3.55q0,1.46,0,2.43t.08,1.56a9.89,9.89,0,0,0,.13,1,3.16,3.16,0,0,0,.2.67c.08.18.18.38.29.6A1.17,1.17,0,0,1,51.2,230.67Zm-6.14-.59a3.43,3.43,0,0,0,1.34-.26,3.3,3.3,0,0,0,1.09-.74,3.37,3.37,0,0,0,.73-1.17,4.79,4.79,0,0,0,0-3.13,3.37,3.37,0,0,0-.73-1.17,3.3,3.3,0,0,0-1.09-.74,3.58,3.58,0,0,0-2.69,0,3.19,3.19,0,0,0-1.08.74,3.64,3.64,0,0,0-.73,1.17,4.62,4.62,0,0,0,0,3.13,3.64,3.64,0,0,0,.73,1.17,3.19,3.19,0,0,0,1.08.74A3.42,3.42,0,0,0,45.06,230.08Z"/><path class="cls-1" d="M56.55,221.9c0,.23,0,.51,0,.82s0,.65,0,1,0,.74,0,1.11v1.09q0,.61,0,1.16c0,.36,0,.65,0,.85a2.43,2.43,0,0,0,.69,1.68,2,2,0,0,0,1.37.55,2.63,2.63,0,0,0,1-.21,3.26,3.26,0,0,0,.94-.58,3.36,3.36,0,0,0,.71-.86,2.26,2.26,0,0,0,.31-1.06c0-.25,0-.55,0-.9s0-.76,0-1.22,0-1,0-1.57,0-1.22-.05-1.88a1.06,1.06,0,0,1,.32-.74.92.92,0,0,1,.65-.28,1.12,1.12,0,0,1,.72.26.9.9,0,0,1,.33.74c0,.18,0,.34,0,.48s0,.28,0,.42q0,1.42-.08,2.45c0,.68,0,1.34,0,2a6.81,6.81,0,0,0,.16,1.5,5.79,5.79,0,0,0,.47,1.34,1.68,1.68,0,0,1,.17.72,1,1,0,0,1-.31.75,1,1,0,0,1-.68.27.86.86,0,0,1-.74-.33,3.09,3.09,0,0,1-.42-.85l-.08-.14s-.08-.05-.16-.05a.26.26,0,0,0-.15,0l-.09.08a4.16,4.16,0,0,1-1.51,1.09,4.45,4.45,0,0,1-1.75.37,3.89,3.89,0,0,1-1.36-.24,3.59,3.59,0,0,1-1.18-.71,3.65,3.65,0,0,1-.85-1.15,4.32,4.32,0,0,1-.39-1.57c0-.18,0-.4,0-.69s0-.6,0-1,0-.72,0-1.1v-2.49q0-.65,0-1.1a1,1,0,0,1,.34-.79,1.06,1.06,0,0,1,.69-.26,1,1,0,0,1,.68.25.86.86,0,0,1,.31.71Z"/><path class="cls-1" d="M75.81,231.72a.77.77,0,0,1-.33-.09l-.39-.22a2.19,2.19,0,0,1-.55-.7.27.27,0,0,0-.12-.1.37.37,0,0,0-.14,0,.36.36,0,0,0-.26.11,3.72,3.72,0,0,1-1.5,1,5.38,5.38,0,0,1-1.91.35,4,4,0,0,1-1.59-.29,3.74,3.74,0,0,1-1.18-.79,3.36,3.36,0,0,1-.74-1.1,3.24,3.24,0,0,1-.25-1.25,2.79,2.79,0,0,1,.49-1.57,3,3,0,0,1,1.58-1.11q.59-.22,1.21-.39l1.15-.31.92-.22a3.25,3.25,0,0,1,.52-.09.56.56,0,0,0,.42-.25,1.09,1.09,0,0,0,.16-.64c0-.07,0-.2,0-.37a1.25,1.25,0,0,0-.21-.52,1.6,1.6,0,0,0-.54-.47,2.05,2.05,0,0,0-1-.21,3,3,0,0,0-1.42.32,3.29,3.29,0,0,0-.92.69,1,1,0,0,1-.36.27.93.93,0,0,1-.34.08.92.92,0,0,1-.66-.25.88.88,0,0,1-.26-.67,1.17,1.17,0,0,1,.33-.75,3.08,3.08,0,0,1,.89-.69,6.14,6.14,0,0,1,2.87-.7,3.85,3.85,0,0,1,2.74.9,3.68,3.68,0,0,1,1,2.8,4.45,4.45,0,0,1-.07.74v.13c0,.19-.05.47-.08.84s0,.72,0,1v.3a1.44,1.44,0,0,0,0,.26,3.9,3.9,0,0,0,.24.93,2.46,2.46,0,0,0,.33.58,1.41,1.41,0,0,0,.35.33l.31.18-.06,0,.13.09a.91.91,0,0,1,.28.7,1.38,1.38,0,0,1-.27.82A.82.82,0,0,1,75.81,231.72Zm-2.93-5.18a12.73,12.73,0,0,0-2.33.45,4.8,4.8,0,0,0-1.26.57,1.3,1.3,0,0,0-.51.58,1.58,1.58,0,0,0-.1.5,1.48,1.48,0,0,0,.49,1.06,1.94,1.94,0,0,0,1.43.49,2.87,2.87,0,0,0,2.15-.7,2.74,2.74,0,0,0,.67-2,2.61,2.61,0,0,0-.09-.66.4.4,0,0,0-.42-.33Z"/><path class="cls-1" d="M82.63,222.82c-.25,0-.39,0-.44.12a.58.58,0,0,0-.06.27v.68c0,.28,0,.58,0,.92s0,.87,0,1.33,0,.91,0,1.33,0,.86,0,1.19a2.24,2.24,0,0,0,.19.81,1,1,0,0,0,.46.47,2,2,0,0,0,.85.15,2.06,2.06,0,0,0,.53-.06h.15a.72.72,0,0,1,.59.27,1,1,0,0,1,.22.6.86.86,0,0,1-.48.81,2.65,2.65,0,0,1-1.27.26,3.1,3.1,0,0,1-1.82-.46,2.79,2.79,0,0,1-.94-1.08,3.64,3.64,0,0,1-.35-1.26c0-.42-.06-.75-.06-1V227q0-.68,0-1.38c0-.38,0-.75,0-1.1s0-.66,0-.91v-.33c0-.22,0-.35-.14-.39a1,1,0,0,0-.4-.06H79a.76.76,0,0,1-.62-.28,1,1,0,0,1,0-1.29A.76.76,0,0,1,79,221h.66c.25,0,.4,0,.47-.13a.61.61,0,0,0,.1-.37v-.28c0-.09,0-.19,0-.31s0-.24,0-.37v-.41a3.19,3.19,0,0,0,0-.42.89.89,0,0,1,.31-.69,1,1,0,0,1,.65-.23.9.9,0,0,1,.89.51,1.1,1.1,0,0,1,.11.42c0,.14,0,.24,0,.29s0,.33,0,.5,0,.34,0,.48,0,.33,0,.5,0,.39.11.44a.76.76,0,0,0,.37.06h1.53a.72.72,0,0,1,.63.28,1.12,1.12,0,0,1,.2.66,1.08,1.08,0,0,1-.2.63.71.71,0,0,1-.63.28Z"/><path class="cls-1" d="M96.93,230.19a7.22,7.22,0,0,1-.83.75,5,5,0,0,1-1,.58,5.4,5.4,0,0,1-1.18.37,7.62,7.62,0,0,1-1.49.13,5.19,5.19,0,0,1-2.08-.42,5,5,0,0,1-1.66-1.15,5.19,5.19,0,0,1-1.09-1.76,6.31,6.31,0,0,1-.39-2.27,6.17,6.17,0,0,1,.42-2.3,5.7,5.7,0,0,1,1.11-1.8,5,5,0,0,1,1.65-1.18,4.83,4.83,0,0,1,2-.43,5,5,0,0,1,2,.37,4.92,4.92,0,0,1,1.47.94,4.06,4.06,0,0,1,.92,1.26,3.13,3.13,0,0,1,.32,1.3,1.8,1.8,0,0,1-.48,1.28,2.07,2.07,0,0,1-1.49.56H89.61a.29.29,0,0,0-.29.16,1,1,0,0,0-.08.4,3.14,3.14,0,0,0,.27,1.33,3.05,3.05,0,0,0,.72,1,3.15,3.15,0,0,0,1,.62,3.48,3.48,0,0,0,1.22.22,3.65,3.65,0,0,0,1-.13,3.87,3.87,0,0,0,.83-.34,4.6,4.6,0,0,0,.68-.46,5.3,5.3,0,0,0,.55-.51,1,1,0,0,1,.34-.23.87.87,0,0,1,.32-.08,1,1,0,0,1,1,1,1.29,1.29,0,0,1-.05.36A.86.86,0,0,1,96.93,230.19Zm-2.4-5.33a.66.66,0,0,0,.45-.2.61.61,0,0,0,.16-.44,1.3,1.3,0,0,0-.12-.43,1.91,1.91,0,0,0-.41-.6,2.53,2.53,0,0,0-.82-.54,3.32,3.32,0,0,0-1.33-.23,3,3,0,0,0-1.29.27,3.75,3.75,0,0,0-1,.63,3.24,3.24,0,0,0-.58.7,1.18,1.18,0,0,0-.2.49.28.28,0,0,0,.08.21.63.63,0,0,0,.34.11,6.86,6.86,0,0,0,.75,0h2.74l1.16,0Z"/><path class="cls-1" d="M115.69,217.07h-2.34l-1.45,0a3.31,3.31,0,0,0-.89.13.79.79,0,0,0-.46.34,1.68,1.68,0,0,0-.17.64c0,.17,0,.39,0,.64v.89c0,.22,0,.44,0,.68s0,.47,0,.72a.84.84,0,0,0,.05.34c0,.08.15.14.33.17a5.4,5.4,0,0,0,.87.07h3.12c.48,0,.85,0,1.09,0a1,1,0,0,1,.59.16,1.18,1.18,0,0,1,.33.36,1.25,1.25,0,0,1,.14.36,1.74,1.74,0,0,1,0,.19,1.28,1.28,0,0,1-.26.79.9.9,0,0,1-.76.35h-.09q-.42,0-1-.06l-1.25,0h-1.73a5.88,5.88,0,0,0-1,.08.64.64,0,0,0-.41.2.62.62,0,0,0-.09.35v2q0,.77,0,1.22t0,.7c0,.16,0,.28,0,.37a1.88,1.88,0,0,0,.21.66.89.89,0,0,0,.54.36,4.74,4.74,0,0,0,1.11.15q.72,0,1.95,0H116l.8,0h.67a.92.92,0,0,1,.75.31,1.07,1.07,0,0,1,.25.7,1.08,1.08,0,0,1-.3.74,1.32,1.32,0,0,1-.93.37h-.39l-.68,0H112.6l-1.06,0a7.46,7.46,0,0,1-1.33-.23,2.83,2.83,0,0,1-1-.49,2.35,2.35,0,0,1-.66-.82,2.94,2.94,0,0,1-.26-1.19q0-.7,0-1.87v-4.63q0-1.06,0-2c0-.64,0-1.23,0-1.77s0-1,0-1.33a2.6,2.6,0,0,1,.8-1.95,3.2,3.2,0,0,1,2-.74l1.15,0h3.57l1.07,0a1.08,1.08,0,0,1,.79,1.8,1.05,1.05,0,0,1-.85.34Z"/><path class="cls-1" d="M129,231.52a.89.89,0,0,1-.7-.37l-.06-.08-.08-.1-.71-.87-1-1.14-.89-1c-.26-.28-.41-.43-.46-.43a.27.27,0,0,0-.24.13q-.41.48-1,1.21l-1.07,1.35a6.39,6.39,0,0,0-.47.56l-.27.36a1.56,1.56,0,0,1-.36.27.77.77,0,0,1-.36.1,1.06,1.06,0,0,1-.74-.31,1,1,0,0,1-.33-.74,1,1,0,0,1,.05-.34.74.74,0,0,1,.19-.29c.16-.2.35-.43.56-.67l.67-.73,1-1.09q.5-.57,1-1.18a.41.41,0,0,0,.08-.11.28.28,0,0,0,0-.13,1.19,1.19,0,0,0-.25-.37l-.61-.74q-.36-.44-.79-.91t-.75-.86l-.37-.46a.79.79,0,0,1-.26-.61,1,1,0,0,1,.34-.74,1,1,0,0,1,.73-.33.91.91,0,0,1,.68.39l1,1.33q.61.77,1.31,1.6a.33.33,0,0,0,.24.11.28.28,0,0,0,.14,0l.08-.06,1.29-1.58q.61-.76,1-1.32a.79.79,0,0,1,.68-.39,1,1,0,0,1,.74.32,1,1,0,0,1,.33.73,1.1,1.1,0,0,1,0,.32.68.68,0,0,1-.18.27q-.59.66-1.09,1.26l-.87,1.06-.81,1a.3.3,0,0,0,.11.2l1,1.13,1,1.08q.37.39.69.78l.6.71a.59.59,0,0,1,.2.29,1.31,1.31,0,0,1,0,.34,1.11,1.11,0,0,1-1,1.07Z"/><path class="cls-1" d="M140.17,230.82c0-.47,0-1.07,0-1.81s0-1.46,0-2.14c0-.41,0-.79,0-1.16s0-.64,0-.83a2.86,2.86,0,0,0-.25-1,2.22,2.22,0,0,0-.52-.72,2.12,2.12,0,0,0-.71-.43,2.38,2.38,0,0,0-.81-.14,3,3,0,0,0-1,.19,3.31,3.31,0,0,0-.94.52,3,3,0,0,0-.71.81,2.32,2.32,0,0,0-.33,1c0,.2,0,.45,0,.74v1q0,1.6.07,4a1.24,1.24,0,0,1-.19.69.84.84,0,0,1-.8.36,1,1,0,0,1-.67-.27,1.11,1.11,0,0,1-.34-.73c0-.54,0-1.13,0-1.77s0-1.3,0-2,0-1.39,0-2.11v-2.15q0-1.22,0-2.38t0-2.19V215.8a.8.8,0,0,1,.32-.68,1.12,1.12,0,0,1,.69-.24,1.1,1.1,0,0,1,.68.23.83.83,0,0,1,.31.71c0,.19,0,.44,0,.75s0,.56,0,.75q0,.66,0,1.3t0,1.2c0,.37,0,.7,0,1s0,.5,0,.65a.63.63,0,0,0,0,.2s.08.07.2.07a.31.31,0,0,0,.18,0,4.53,4.53,0,0,1,1.38-.7,5.21,5.21,0,0,1,1.62-.26,4.53,4.53,0,0,1,1.34.21,3.35,3.35,0,0,1,1.19.66,3.55,3.55,0,0,1,.87,1.16,4.28,4.28,0,0,1,.39,1.71c0,.21,0,.48,0,.82s0,.72,0,1.13,0,.84,0,1.28,0,.87,0,1.28v1c0,.31,0,.57,0,.81a1.11,1.11,0,0,1-.32.83,1,1,0,0,1-.66.26,1,1,0,0,1-.7-.26,1,1,0,0,1-.31-.76Z"/><path class="cls-1" d="M147.19,217.7a1.41,1.41,0,0,1-1-.39,1.44,1.44,0,0,1-.41-1.09,1.38,1.38,0,0,1,.14-.66,1.49,1.49,0,0,1,.35-.44,1.31,1.31,0,0,1,.46-.25,1.65,1.65,0,0,1,.47-.08,1.37,1.37,0,0,1,1,.4,1.34,1.34,0,0,1,.43,1,1.57,1.57,0,0,1-.38,1A1.26,1.26,0,0,1,147.19,217.7Zm1,13.18a.93.93,0,0,1-.34.79,1.14,1.14,0,0,1-.71.26,1.08,1.08,0,0,1-.71-.26,1,1,0,0,1-.32-.79V227.8q0-.87,0-1.76c0-.59,0-1.15,0-1.67V223q0-.7,0-1.16a1,1,0,0,1,.33-.72,1,1,0,0,1,.72-.28,1.1,1.1,0,0,1,.68.25.88.88,0,0,1,.35.69q0,.74,0,2t0,2.67q0,1.18,0,2.34t0,2.08Z"/><path class="cls-1" d="M158.08,231.91a4.33,4.33,0,0,1-1.62-.29,4.75,4.75,0,0,1-1.36-.82.44.44,0,0,0-.24-.09.24.24,0,0,0-.26.22,1,1,0,0,1-1,.85,1,1,0,0,1-.66-.27,1.08,1.08,0,0,1-.31-.84v-1.85q0-1.08,0-2.33,0-1.57,0-3.25t0-3.16q0-1.29,0-2.36t-.05-1.66a1.11,1.11,0,0,1,.13-.56,1.24,1.24,0,0,1,.29-.36,1.35,1.35,0,0,1,.33-.2.78.78,0,0,1,.23-.06.9.9,0,0,1,.66.28,1.16,1.16,0,0,1,.33.74q0,.74,0,2.32t0,3.56c0,.16.09.24.26.24H155a.24.24,0,0,0,.13-.08h0a5,5,0,0,1,1.35-.83,4.34,4.34,0,0,1,1.66-.31,5.27,5.27,0,0,1,2.1.41,5.15,5.15,0,0,1,1.67,1.15,5.3,5.3,0,0,1,1.11,1.75,6,6,0,0,1,.4,2.22,6.16,6.16,0,0,1-.4,2.27,5.24,5.24,0,0,1-1.11,1.76,5,5,0,0,1-1.67,1.14A5.38,5.38,0,0,1,158.08,231.91Zm0-1.84a3.42,3.42,0,0,0,1.34-.26,3.19,3.19,0,0,0,1.08-.74,3.58,3.58,0,0,0,.73-1.17,4.59,4.59,0,0,0,0-3.13,3.58,3.58,0,0,0-.73-1.17,3.19,3.19,0,0,0-1.08-.74,3.58,3.58,0,0,0-2.69,0,3.18,3.18,0,0,0-1.08.74,3.59,3.59,0,0,0-.73,1.17,4.6,4.6,0,0,0,0,3.13,3.59,3.59,0,0,0,.73,1.17,3.18,3.18,0,0,0,1.08.74A3.43,3.43,0,0,0,158,230.08Z"/><path class="cls-1" d="M167.87,217.7a1.41,1.41,0,0,1-1-.39,1.43,1.43,0,0,1-.41-1.09,1.36,1.36,0,0,1,.14-.66,1.48,1.48,0,0,1,.35-.44,1.29,1.29,0,0,1,.46-.25,1.64,1.64,0,0,1,.47-.08,1.37,1.37,0,0,1,1,.4,1.34,1.34,0,0,1,.43,1,1.57,1.57,0,0,1-.38,1A1.26,1.26,0,0,1,167.87,217.7Zm1,13.18a.93.93,0,0,1-.34.79,1.14,1.14,0,0,1-.71.26,1.09,1.09,0,0,1-.71-.26,1,1,0,0,1-.32-.79V227.8q0-.87,0-1.76c0-.59,0-1.15,0-1.67V223c0-.47,0-.85,0-1.16a1,1,0,0,1,1-1,1.1,1.1,0,0,1,.68.25.88.88,0,0,1,.35.69q0,.74,0,2t0,2.67q0,1.18,0,2.34t0,2.08Z"/><path class="cls-1" d="M176.4,222.82c-.25,0-.39,0-.44.12a.57.57,0,0,0-.07.27v.68c0,.28,0,.58,0,.92s0,.87,0,1.33,0,.91,0,1.33,0,.86,0,1.19a2.24,2.24,0,0,0,.19.81,1,1,0,0,0,.46.47,2,2,0,0,0,.85.15,2,2,0,0,0,.52-.06H178a.72.72,0,0,1,.59.27,1,1,0,0,1,.22.6.86.86,0,0,1-.48.81,2.65,2.65,0,0,1-1.27.26,3.1,3.1,0,0,1-1.82-.46,2.81,2.81,0,0,1-.94-1.08,3.69,3.69,0,0,1-.35-1.26c0-.42-.06-.75-.06-1V227c0-.45,0-.91,0-1.38s0-.75,0-1.1,0-.66,0-.91v-.33c0-.22,0-.35-.14-.39a1,1,0,0,0-.4-.06h-.68a.76.76,0,0,1-.62-.28,1,1,0,0,1-.23-.66,1,1,0,0,1,.22-.63.76.76,0,0,1,.63-.28h.65c.25,0,.4,0,.47-.13a.61.61,0,0,0,.1-.37v-.28c0-.09,0-.19,0-.31s0-.24,0-.37v-.41a3.57,3.57,0,0,0,0-.42.89.89,0,0,1,.31-.69,1,1,0,0,1,.66-.23,1,1,0,0,1,.58.15,1,1,0,0,1,.3.36,1.06,1.06,0,0,1,.11.42c0,.14,0,.24,0,.29s0,.33,0,.5,0,.34,0,.48,0,.33,0,.5,0,.39.11.44a.75.75,0,0,0,.37.06h1.53a.72.72,0,0,1,.63.28,1.13,1.13,0,0,1,.2.66,1.09,1.09,0,0,1-.2.63.72.72,0,0,1-.63.28Z"/><path class="cls-1" d="M183,217.7a1.41,1.41,0,0,1-1-.39,1.44,1.44,0,0,1-.41-1.09,1.36,1.36,0,0,1,.14-.66,1.49,1.49,0,0,1,.35-.44,1.3,1.3,0,0,1,.46-.25,1.64,1.64,0,0,1,.47-.08,1.37,1.37,0,0,1,1,.4,1.34,1.34,0,0,1,.43,1,1.57,1.57,0,0,1-.38,1A1.26,1.26,0,0,1,183,217.7Zm1,13.18a.93.93,0,0,1-.34.79,1.14,1.14,0,0,1-.71.26,1.09,1.09,0,0,1-.71-.26,1,1,0,0,1-.32-.79V227.8q0-.87,0-1.76c0-.59,0-1.15,0-1.67V223q0-.7,0-1.16a1,1,0,0,1,1-1,1.1,1.1,0,0,1,.68.25.88.88,0,0,1,.35.69q0,.74,0,2t0,2.67q0,1.18,0,2.34t0,2.08Z"/><path class="cls-1" d="M193.05,232a5.8,5.8,0,0,1-2.19-.4,5.18,5.18,0,0,1-1.75-1.15,5.37,5.37,0,0,1-1.17-1.78,5.94,5.94,0,0,1-.43-2.28,5.75,5.75,0,0,1,.43-2.23,5.43,5.43,0,0,1,1.17-1.77,5.49,5.49,0,0,1,1.75-1.17,5.77,5.77,0,0,1,4.35,0,5.49,5.49,0,0,1,1.75,1.17,5.41,5.41,0,0,1,1.17,1.77,5.75,5.75,0,0,1,.43,2.23,5.94,5.94,0,0,1-.43,2.28,5.35,5.35,0,0,1-1.17,1.78,5.17,5.17,0,0,1-1.75,1.15A5.75,5.75,0,0,1,193.05,232Zm0-1.86a3.64,3.64,0,0,0,1.39-.26,3.43,3.43,0,0,0,1.14-.75,3.56,3.56,0,0,0,.77-1.18,4,4,0,0,0,.28-1.56,4.13,4.13,0,0,0-.28-1.57,3.54,3.54,0,0,0-.77-1.19,3.42,3.42,0,0,0-1.15-.75,3.75,3.75,0,0,0-2.75,0,3.42,3.42,0,0,0-1.15.75,3.71,3.71,0,0,0-.79,1.19,4.39,4.39,0,0,0,0,3.14,3.53,3.53,0,0,0,.78,1.18,3.37,3.37,0,0,0,1.15.75A3.72,3.72,0,0,0,193.05,230.12Z"/><path class="cls-1" d="M209.08,230.84q0-.35,0-.82c0-.31,0-.65,0-1s0-.73,0-1.1v-1.08q0-.68,0-1.22c0-.37,0-.63,0-.81a2.25,2.25,0,0,0-.63-1.62,2,2,0,0,0-1.4-.5,2.84,2.84,0,0,0-1.08.23,3.87,3.87,0,0,0-1,.62,3.65,3.65,0,0,0-.79.92,2.47,2.47,0,0,0-.36,1.11c0,.2,0,.43,0,.69v.86q0,1.35.07,3.74a1.17,1.17,0,0,1-.19.68.85.85,0,0,1-.8.35,1,1,0,0,1-.67-.27,1.08,1.08,0,0,1-.34-.71q0-1.64.07-2.83t0-2.18q0-1.92-.06-4.07a.85.85,0,0,1,.35-.68,1.12,1.12,0,0,1,1.36,0,.8.8,0,0,1,.31.7.15.15,0,0,1,0,.06.13.13,0,0,0,0,.07V222a.67.67,0,0,0,0,.22s.07,0,.17,0a.36.36,0,0,0,.24-.13,3.94,3.94,0,0,1,1.43-1,4.38,4.38,0,0,1,1.65-.33,3.65,3.65,0,0,1,1.31.24,3.52,3.52,0,0,1,1.14.7,3.71,3.71,0,0,1,.83,1.14,4,4,0,0,1,.37,1.55c0,.2,0,.48,0,.82s0,.71,0,1.12,0,.82,0,1.27,0,.88,0,1.3v1c0,.31,0,.59,0,.82a1.09,1.09,0,0,1-.32.81,1,1,0,0,1-.67.26,1,1,0,0,1-.7-.26.93.93,0,0,1-.31-.74Z"/><path class="cls-1" d="M1.9,259.72a.94.94,0,0,1-.78-.34,1.34,1.34,0,0,1-.27-.86,2.14,2.14,0,0,1,.59-1.42l1.79-2,2.18-2.41q1.17-1.29,2.15-2.49a6,6,0,0,0,1-1.56,3.71,3.71,0,0,0,.31-1.39,2.54,2.54,0,0,0-.2-1,2.17,2.17,0,0,0-.54-.77,2.51,2.51,0,0,0-.8-.48,2.69,2.69,0,0,0-1-.17,3.13,3.13,0,0,0-1.55.45,4.05,4.05,0,0,0-1.38,1.37,1.17,1.17,0,0,1-1,.59,1.18,1.18,0,0,1-.79-.29.94.94,0,0,1-.35-.75,2,2,0,0,1,.31-.84,4.13,4.13,0,0,1,.94-1.1,6.27,6.27,0,0,1,1.57-1,5.47,5.47,0,0,1,2.23-.42,5.86,5.86,0,0,1,1.81.28,5,5,0,0,1,1.55.82,4.17,4.17,0,0,1,1.09,1.31,3.63,3.63,0,0,1,.41,1.74,5.59,5.59,0,0,1-.45,2,9.92,9.92,0,0,1-1.34,2.31q-.79,1-1.73,1.95l-1.86,1.88-1.21,1.25-1.19,1.25,1.54,0,1.67-.07,1.76-.08c.58,0,1.11,0,1.61,0a1.11,1.11,0,0,1,.88.32,1,1,0,0,1,.27.69,1.27,1.27,0,0,1-.31.83,1.12,1.12,0,0,1-.92.37Z"/><path class="cls-1" d="M19.41,260a4.67,4.67,0,0,1-3.55-1.5,7.14,7.14,0,0,1-1.72-4.23q-.07-.7-.12-1.42c0-.48-.05-.95-.05-1.4s0-.84.05-1.3.07-.91.1-1.34a9,9,0,0,1,.57-2.49,6.17,6.17,0,0,1,1.13-1.86,4.74,4.74,0,0,1,1.6-1.17,4.86,4.86,0,0,1,2-.4,4.74,4.74,0,0,1,3.6,1.49,7,7,0,0,1,1.69,4.22q.07.72.12,1.48c0,.5.05,1,.05,1.43s0,.92,0,1.5a15.61,15.61,0,0,1-.21,1.82,10.18,10.18,0,0,1-.51,1.88,5.79,5.79,0,0,1-1,1.66,4.57,4.57,0,0,1-1.52,1.19A4.93,4.93,0,0,1,19.41,260Zm0-2.08a2.59,2.59,0,0,0,2-.93,4.78,4.78,0,0,0,1.08-2.59c.07-.48.12-1,.15-1.53s0-1.09,0-1.64c0-.29,0-.65,0-1.08a11,11,0,0,0-.11-1.34,10.52,10.52,0,0,0-.29-1.4,4.4,4.4,0,0,0-.56-1.25,3,3,0,0,0-.92-.9,2.52,2.52,0,0,0-1.37-.35A2.63,2.63,0,0,0,17.3,246a5.32,5.32,0,0,0-1,2.92c0,.42-.05.84-.08,1.26s0,.82,0,1.21,0,.94,0,1.43.06.95.12,1.39a6.75,6.75,0,0,0,.41,1.54,4.64,4.64,0,0,0,.69,1.18,2.9,2.9,0,0,0,.92.75A2.35,2.35,0,0,0,19.41,257.93Z"/><path class="cls-1" d="M34,258.8a.92.92,0,0,1-.35.79,1.28,1.28,0,0,1-.79.26,1.27,1.27,0,0,1-.78-.27,1,1,0,0,1-.36-.82q0-.72,0-1.79t0-2.32q0-1.49,0-3t0-2.73q0-1.22,0-1.93a4.58,4.58,0,0,0-.14-1.06.64.64,0,0,0-.32-.44,1.46,1.46,0,0,0-.56-.09h-.33a.81.81,0,0,1-.71-.33,1.23,1.23,0,0,1-.23-.72,1.41,1.41,0,0,1,.25-.81,1,1,0,0,1,.71-.44l.57,0h.55a2.42,2.42,0,0,1,1.74.61,2.32,2.32,0,0,1,.69,1.66c0,.15,0,.32,0,.52v2c0,.49,0,1,0,1.58,0,.76,0,1.57,0,2.43s0,1.75,0,2.67v2.11q0,1.06,0,2.11Z"/><path class="cls-1" d="M48.73,250.65a4.07,4.07,0,0,1,2,1.66,5.38,5.38,0,0,1,.18,5,4.59,4.59,0,0,1-1.36,1.57,5.61,5.61,0,0,1-1.86.88,8,8,0,0,1-2.06.27,6.84,6.84,0,0,1-2.18-.34,5.48,5.48,0,0,1-1.79-1,4.59,4.59,0,0,1-1.22-1.58,5,5,0,0,1-.45-2.16,4.45,4.45,0,0,1,.29-1.64A5.08,5.08,0,0,1,41,252a4.67,4.67,0,0,1,.94-.92,6.33,6.33,0,0,1,1-.59,4.23,4.23,0,0,1-1.49-1.41,3.64,3.64,0,0,1-.59-2,4.07,4.07,0,0,1,.43-1.92,3.72,3.72,0,0,1,1.12-1.31,4.91,4.91,0,0,1,1.56-.74,6.5,6.5,0,0,1,1.76-.24,6,6,0,0,1,2.14.35,4.55,4.55,0,0,1,1.53.93,3.76,3.76,0,0,1,.92,1.35,4.25,4.25,0,0,1,.31,1.59,3.74,3.74,0,0,1-.54,2,3.56,3.56,0,0,1-1.34,1.31Zm.61,4.26a4.85,4.85,0,0,0-.12-1,2.66,2.66,0,0,0-.51-1.08,3.13,3.13,0,0,0-1.11-.87,4.29,4.29,0,0,0-1.9-.36,4.12,4.12,0,0,0-1.55.27,3.43,3.43,0,0,0-1.14.72,3,3,0,0,0-.7,1,3.34,3.34,0,0,0-.24,1.26,2.75,2.75,0,0,0,.31,1.3,3,3,0,0,0,.82,1,3.81,3.81,0,0,0,1.16.6,4.33,4.33,0,0,0,1.34.21,4.45,4.45,0,0,0,1.36-.21,3.8,3.8,0,0,0,1.17-.6,2.94,2.94,0,0,0,.82-1A2.74,2.74,0,0,0,49.34,254.91Zm-.79-7.74a2,2,0,0,0-.31-1.16,2.42,2.42,0,0,0-.75-.73,3.11,3.11,0,0,0-.94-.38,4.1,4.1,0,0,0-.86-.11,3.21,3.21,0,0,0-1.15.2,3.07,3.07,0,0,0-.9.52,2.33,2.33,0,0,0-.59.75,2,2,0,0,0-.21.91,2.59,2.59,0,0,0,.22,1.1,2.09,2.09,0,0,0,.59.77,2.51,2.51,0,0,0,.89.44,4.06,4.06,0,0,0,1.08.14,3.51,3.51,0,0,0,1.64-.32,2.41,2.41,0,0,0,.87-.73,2,2,0,0,0,.35-.82A4.06,4.06,0,0,0,48.55,247.17Z"/></g><path class="cls-1" d="M136.15,259.16a.72.72,0,0,0,.51-.22.71.71,0,0,0,.22-.51v-.91a.35.35,0,0,1,.1-.25.35.35,0,0,1,.25-.1h.45a.35.35,0,0,1,.21.1.37.37,0,0,1,.1.25v.54a.74.74,0,0,0,.21.52.71.71,0,0,0,.51.21h.76a.73.73,0,0,0,.51-.22.73.73,0,0,0,.22-.51v-.54a.35.35,0,0,1,.35-.35h.54a.74.74,0,0,0,.51-.22.72.72,0,0,0,.22-.5v-.75a.71.71,0,0,0-.21-.52.74.74,0,0,0-.52-.21h-.53a.35.35,0,0,1-.35-.35v-.41a.35.35,0,0,1,.35-.35h.9a.73.73,0,0,0,.51-.22.74.74,0,0,0,.22-.51v-.75a.73.73,0,0,0-.21-.52.74.74,0,0,0-.52-.21h-.91a.36.36,0,0,1-.34-.31s0,0,0,0v-.91a.72.72,0,0,0-.21-.52.75.75,0,0,0-.52-.21h-.75a.72.72,0,0,0-.73.73v.91a.22.22,0,0,1,0,0,.36.36,0,0,1-.1.21.37.37,0,0,1-.21.1h-.45a.34.34,0,0,1-.34-.35v-.53a.74.74,0,0,0-.21-.52.74.74,0,0,0-.52-.21h-.75a.72.72,0,0,0-.52.21.73.73,0,0,0-.21.52v.54a.14.14,0,0,1,0,0,.39.39,0,0,1-.1.21.37.37,0,0,1-.21.1h-.58a.73.73,0,0,0-.73.73v.75a.74.74,0,0,0,.22.52.73.73,0,0,0,.52.21h.54a.35.35,0,0,1,.35.35v.41a.14.14,0,0,1,0,0,.34.34,0,0,1-.1.21.38.38,0,0,1-.21.1h-.95a.71.71,0,0,0-.52.21.72.72,0,0,0-.21.52v.75a.72.72,0,0,0,.21.52.71.71,0,0,0,.51.21h.91a.34.34,0,0,1,.35.35v.91a.74.74,0,0,0,.21.52.73.73,0,0,0,.52.21Zm1.08-4.2a.36.36,0,0,1-.35-.33v-.43a.35.35,0,0,1,.1-.25.34.34,0,0,1,.25-.1h.41a.36.36,0,0,1,.35.33v.43a.34.34,0,0,1-.1.25.35.35,0,0,1-.25.11Z"/><path class="cls-1" d="M159.15,246.09h-2.67a.32.32,0,0,0-.32.32v4a.36.36,0,0,1-.35.36h-2a.36.36,0,0,1-.36-.36v-4a.32.32,0,0,0-.32-.32h-2.66a.78.78,0,0,0-.27.07l-.05,0v12.09c0,.37,0,1,.32,1h2.66a.32.32,0,0,0,.32-.32v-4.79a.36.36,0,0,1,.36-.36h2a.36.36,0,0,1,.35.36v4.79a.32.32,0,0,0,.32.32h2.67a.32.32,0,0,0,.32-.32V246.41A.32.32,0,0,0,159.15,246.09Z"/><path class="cls-1" d="M165.59,258.87a.16.16,0,0,0,.15.12h2.39a.16.16,0,0,0,.17-.15.18.18,0,0,0,0-.05.3.3,0,0,1,0-.11,11.66,11.66,0,0,1-.11-1.85v-3c0-2.54-1.23-3.83-3.66-3.83a6.65,6.65,0,0,0-3.2.75.14.14,0,0,0-.07.17l.49,1.73a.15.15,0,0,0,.09.1h.05a.16.16,0,0,0,.08,0,4,4,0,0,1,2-.55,1.53,1.53,0,0,1,.89.2.35.35,0,0,1,.15.38v0a.37.37,0,0,1-.3.24c-2.58.19-4,1.42-4,3.37a2.68,2.68,0,0,0,2.71,2.77,3.07,3.07,0,0,0,1.71-.47.34.34,0,0,1,.2-.06h.06l.09,0A.38.38,0,0,1,165.59,258.87Zm-.34-3a1,1,0,0,1-1,1.05c-.47,0-.75-.32-.75-.85s.23-1,1.35-1.13h0a.37.37,0,0,1,.23.08l0,0a.36.36,0,0,1,.1.26Z"/><path class="cls-1" d="M198.91,258.89a.16.16,0,0,0,.14.11h2.39a.16.16,0,0,0,.17-.15.14.14,0,0,0,0-.05.28.28,0,0,1,0-.11,12,12,0,0,1-.11-1.84v-3c0-2.54-1.23-3.83-3.66-3.83a6.63,6.63,0,0,0-3.2.75.15.15,0,0,0-.07.17l.48,1.72a.16.16,0,0,0,.09.1h.12a4,4,0,0,1,2-.56,1.49,1.49,0,0,1,.89.2.35.35,0,0,1,.14.38.36.36,0,0,1-.31.27c-2.57.19-4,1.42-4,3.37a2.68,2.68,0,0,0,2.7,2.77,3.06,3.06,0,0,0,1.71-.47.34.34,0,0,1,.2-.06h.07l.09,0A.37.37,0,0,1,198.91,258.89Zm-.34-3a1,1,0,0,1-1,1.05c-.47,0-.75-.32-.75-.85s.23-1,1.35-1.13h0a.35.35,0,0,1,.36.36Z"/><path class="cls-1" d="M173.74,253.39a5.72,5.72,0,0,1-.8-.39.35.35,0,0,1-.16-.35v0a.37.37,0,0,1,.28-.27l.26,0a3.23,3.23,0,0,1,1.44.4.3.3,0,0,0,.13,0l.11,0a.28.28,0,0,0,.15-.19l.45-1.86a.28.28,0,0,0-.15-.32,5.47,5.47,0,0,0-2.27-.48c-2.09,0-3.55,1.27-3.55,3.09,0,.83.4,2,2.31,2.77.33.13.53.24.62.28l0,0h0a.36.36,0,0,1,.23.13l0,0a.37.37,0,0,1,0,.43l0,0a1,1,0,0,1-.63.15,4.3,4.3,0,0,1-1.84-.52.3.3,0,0,0-.14,0l-.11,0a.27.27,0,0,0-.16.19l-.46,1.91a.28.28,0,0,0,.13.3,5.35,5.35,0,0,0,2.6.6c2.36,0,3.76-1.14,3.76-3.06A3,3,0,0,0,173.74,253.39Z"/><path class="cls-1" d="M182.44,249.92a2.89,2.89,0,0,0-1.36.32l0,0a.35.35,0,0,1-.31,0,.36.36,0,0,1-.18-.31v-3.19a.32.32,0,0,0-.32-.32h-2.67a.31.31,0,0,0-.32.32v12.2a.32.32,0,0,0,.32.32h2.67a.32.32,0,0,0,.32-.32V253.8c0-.91.5-1,.8-1,.49,0,.74.45.74,1.33v4.85a.32.32,0,0,0,.32.32h2.66a.32.32,0,0,0,.32-.32v-5C185.41,250.31,183.33,249.92,182.44,249.92Z"/><path class="cls-1" d="M210.71,253c0-1,0-1.7.06-2.29v-.34a.13.13,0,0,0,0-.1.15.15,0,0,0-.11-.05h-2.31a.14.14,0,0,0-.13.09.37.37,0,0,1-.22.22h-.11a.35.35,0,0,1-.22-.07,2.4,2.4,0,0,0-1.43-.43c-2.09,0-3.61,1.95-3.61,4.63,0,2.53,1.38,4.29,3.36,4.29a2.68,2.68,0,0,0,1.2-.28.34.34,0,0,1,.17,0,.35.35,0,0,1,.22.07.37.37,0,0,1,.13.37A1.53,1.53,0,0,1,206,260.2a4.69,4.69,0,0,1-2-.48h-.14a.13.13,0,0,0-.08.1l-.48,2a.14.14,0,0,0,.08.16,6.44,6.44,0,0,0,2.77.55c4.57,0,4.57-3.5,4.57-4.82Zm-3,2.36c0,1.14-.6,1.31-1,1.31-.88,0-1.2-1.05-1.2-2,0-1.33.48-2.19,1.23-2.19.56,0,.93.5.93,1.26Z"/><path class="cls-1" d="M192.74,259V256.9a.15.15,0,0,0-.06-.12l-.09,0h0c-.26.06-1.92.06-1.94.06-.66,0-.8-.49-.8-1.22v-2.73a.36.36,0,0,1,.36-.35h2.54a.14.14,0,0,0,.15-.15v-1.92a.15.15,0,0,0-.15-.15h-2.54a.36.36,0,0,1-.36-.36v-3.45a.17.17,0,0,0-.07-.13l-.09,0h-.05l-2.61.74a.15.15,0,0,0-.11.14V250a.31.31,0,0,1,0,.13v2.67a.3.3,0,0,1,0,.12V256c0,2.26.92,3.37,2.82,3.37a20.14,20.14,0,0,0,3-.14A.15.15,0,0,0,192.74,259Z"/><g id="_群組_27" data-name="&lt;群組&gt;"><path class="cls-1" d="M142.56,8.24l-.22,1.46h1.39v1.14h-1.56l-.29,2h-.53l.29-2h-1.89l-.3,2h-.51l.29-2h-1.35V9.7h1.53l.22-1.46h-1.36V7.09h1.53l.29-1.95h.51l-.3,1.95h1.91l.3-1.95H143l-.29,1.95h1.4V8.24Zm-.52,0h-1.9l-.22,1.46h1.91Z"/><path class="cls-1" d="M151.7,5.38c0,1.08,0,2.18,0,3.3v.45c0,1.07,0,2.17,0,3.24l1.08.11v.36h-4v-.36l1.06-.1c0-1.05,0-2.14,0-3.23V8.68c0-1.11,0-2.21,0-3.3h-1.45l-.53,1.84h-.62l0-2.25h6.95l0,2.25h-.61l-.54-1.84Z"/><path class="cls-1" d="M160.21,12.2a1.29,1.29,0,0,1-1.34.82,1.17,1.17,0,0,1-1.24-.92,2.14,2.14,0,0,1-1.78.92,1.4,1.4,0,0,1-1.54-1.43c0-1,.55-1.47,2.24-2l1-.27V8.7c0-1.09-.25-1.42-1.05-1.42a2.16,2.16,0,0,0-.44,0l-.07.75c0,.72-.39,1-.79,1a.69.69,0,0,1-.73-.54c.09-1,1-1.62,2.63-1.62s2.09.64,2.09,2.17v2.83c0,.4.13.54.33.54s.27-.08.47-.4Zm-4.7-4.73-.17.06Zm2.08,2.16a5.06,5.06,0,0,0-.58.18,1.6,1.6,0,0,0-1.13,1.57c0,.63.29.93.79.93a1.4,1.4,0,0,0,.92-.48Z"/><path class="cls-1" d="M163.73,12.52v.33h-3.07v-.33l.69-.06c0-.62,0-1.53,0-2.12V9.49c0-.67,0-1.06,0-1.6l-.79-.08V7.56L163,6.92l.15.11,0,1.68v1.62c0,.59,0,1.51,0,2.12ZM161.28,5a.91.91,0,1,1,.91.85A.87.87,0,0,1,161.28,5Z"/><path class="cls-1" d="M173.37,7.41l-.73.11-1.87,5.35h-.72c-.82-2.27-1.2-3.34-1.44-4.17l-1.49,4.17h-.71l-1.93-5.39-.57-.06V7.09H167v.32l-.82.07,1.18,3.84,1.24-3.83-.82-.08V7.09h2.75v.32l-.81.09L171,11.27l1.12-3.75-.95-.11V7.1h2.17Z"/><path class="cls-1" d="M179.5,12.21a1.29,1.29,0,0,1-1.34.82,1.17,1.17,0,0,1-1.24-.92,2.14,2.14,0,0,1-1.78.92,1.4,1.4,0,0,1-1.54-1.43c0-1,.55-1.47,2.24-2l1-.27V8.71c0-1.09-.25-1.42-1.05-1.42a2.15,2.15,0,0,0-.44,0l-.07.75c0,.72-.39,1-.79,1a.69.69,0,0,1-.73-.54c.09-1,1-1.62,2.63-1.62s2.1.64,2.09,2.17v2.83c0,.4.13.54.33.54s.27-.09.47-.4Zm-4.7-4.73-.17.06Zm2.08,2.16a5.24,5.24,0,0,0-.58.18,1.59,1.59,0,0,0-1.13,1.57c0,.63.29.93.79.93a1.4,1.4,0,0,0,.92-.48Z"/><path class="cls-1" d="M186.62,12.52v.33h-3.05v-.33l.66-.06c0-.61,0-1.51,0-2.12V8.83c0-.82-.23-1.12-.73-1.12a2,2,0,0,0-1.2.6v2c0,.59,0,1.51,0,2.13l.6.05v.33h-3v-.33l.7-.06c0-.62,0-1.53,0-2.12V9.47c0-.68,0-1,0-1.54l-.79-.08V7.6l2.29-.66.15.11.06.93a2.44,2.44,0,0,1,2-1c1,0,1.68.65,1.68,2v1.39c0,.62,0,1.52,0,2.13Z"/><path class="cls-1" d="M190.85,5.4c0,1.08,0,2.18,0,3.3v.45c0,1.07,0,2.17,0,3.24l1.07.11v.36h-4v-.36l1.06-.1c0-1.05,0-2.14,0-3.23V8.69c0-1.11,0-2.21,0-3.3h-1.45L187,7.24h-.62l0-2.25h6.95l0,2.25h-.61l-.54-1.84Z"/><path class="cls-1" d="M198.61,11.61A2.47,2.47,0,0,1,196.26,13a2.85,2.85,0,0,1-3-3.08,2.92,2.92,0,0,1,3-3,2.27,2.27,0,0,1,2.43,2.4,2.42,2.42,0,0,1-.07.64H195c.05,1.64.84,2.32,1.83,2.32a1.75,1.75,0,0,0,1.54-.8Zm-2.14-2c.49,0,.62-.24.62-.89,0-.92-.4-1.4-1-1.4s-1.05.65-1.1,2.28Z"/><path class="cls-1" d="M203.17,7.32l-.29,0c-.94,0-1.62.92-1.62,2.53s.77,2.46,1.89,2.46a1.77,1.77,0,0,0,1.44-.75l.21.14A2.54,2.54,0,0,1,202.4,13a2.84,2.84,0,0,1-2.94-3,3,3,0,0,1,3.19-3.06,2.05,2.05,0,0,1,2.17,1.67.67.67,0,0,1-.7.56c-.44,0-.81-.25-.85-1Z"/><path class="cls-1" d="M212.07,12.54v.33H209v-.33l.67-.06c0-.61,0-1.51,0-2.12V8.84c0-.82-.31-1.12-.77-1.12a1.86,1.86,0,0,0-1.18.57v2.06c0,.59,0,1.51,0,2.13l.61.05v.33h-3v-.33l.69-.06c0-.62,0-1.53,0-2.12V5l-.77-.07V4.62l2.33-.45.15.09,0,1.7V8a2.38,2.38,0,0,1,2-1.06c1,0,1.72.62,1.71,2.05v1.37c0,.62,0,1.52,0,2.13Z"/><path class="cls-1" d="M147.57,22.73l-.22,1.46h1.39v1.14h-1.56l-.3,2h-.53l.3-2h-1.9l-.29,2h-.52l.29-2h-1.35V24.19h1.53l.22-1.46h-1.36V21.58h1.53l.29-1.95h.51l-.29,1.95h1.9l.3-1.95H148l-.29,1.95h1.4v1.15Zm-.51,0h-1.91l-.22,1.46h1.91Z"/><path class="cls-1" d="M156.71,19.87c0,1.08,0,2.18,0,3.3v.45c0,1.07,0,2.17,0,3.24l1.08.11v.36h-4V27l1.06-.1c0-1.05,0-2.14,0-3.23v-.46c0-1.11,0-2.21,0-3.3h-1.45l-.53,1.84h-.62l0-2.25h6.95l0,2.25h-.61l-.53-1.84Z"/><path class="cls-1" d="M165.22,26.69a1.29,1.29,0,0,1-1.34.82,1.17,1.17,0,0,1-1.24-.92,2.14,2.14,0,0,1-1.78.92,1.4,1.4,0,0,1-1.54-1.43c0-1,.55-1.47,2.24-2l1-.27v-.64c0-1.09-.25-1.42-1.05-1.42a2.08,2.08,0,0,0-.44,0l-.07.75c0,.72-.39,1-.79,1a.68.68,0,0,1-.73-.54c.08-1,1-1.62,2.63-1.62s2.1.64,2.1,2.17V26.4c0,.4.13.54.33.54s.27-.08.48-.4ZM160.52,22l-.17.06Zm2.08,2.16a5.11,5.11,0,0,0-.58.18,1.59,1.59,0,0,0-1.13,1.57c0,.63.29.93.79.93a1.39,1.39,0,0,0,.92-.48Z"/><path class="cls-1" d="M168.74,27v.33h-3.07V27l.69-.06c0-.62,0-1.53,0-2.12V24c0-.67,0-1.06,0-1.6l-.79-.09V22l2.41-.63.15.11,0,1.68v1.62c0,.59,0,1.51,0,2.12Zm-2.45-7.5a.91.91,0,1,1,.91.85A.87.87,0,0,1,166.29,19.51Z"/><path class="cls-1" d="M171.82,22.19a2.34,2.34,0,0,1,1.81-.79c1.28,0,2.3,1.07,2.3,3s-1.17,3.09-2.56,3.08a2,2,0,0,1-1.55-.73v.62c0,.63,0,1.43,0,2.25l.81.1v.31h-3.23v-.3l.7-.07c0-.83,0-1.63,0-2.27V24c0-.68,0-1,0-1.55l-.78-.09v-.25l2.25-.66.15.11Zm0,4.31a1.27,1.27,0,0,0,.87.26c.82,0,1.4-.57,1.4-2.33s-.5-2.31-1.34-2.31a1.24,1.24,0,0,0-.94.37Z"/><path class="cls-1" d="M182.18,26.09a2.47,2.47,0,0,1-2.35,1.42,2.85,2.85,0,0,1-3-3.08,2.93,2.93,0,0,1,3-3,2.27,2.27,0,0,1,2.43,2.4,2.35,2.35,0,0,1-.06.64h-3.58c.05,1.64.84,2.32,1.83,2.32A1.75,1.75,0,0,0,182,26Zm-2.14-2c.5,0,.62-.24.62-.89,0-.92-.4-1.4-1-1.4s-1.05.65-1.1,2.28Z"/><path class="cls-1" d="M186.13,27v.33h-3.07V27l.69-.06c0-.62,0-1.53,0-2.12V24c0-.67,0-1.06,0-1.6L183,22.3V22l2.41-.63.15.11,0,1.68v1.62c0,.59,0,1.51,0,2.12Zm-2.45-7.5a.91.91,0,1,1,.91.85A.87.87,0,0,1,183.68,19.51Z"/><path class="cls-1" d="M190.84,19.88c0,1.08,0,2.18,0,3.29v.45c0,1.07,0,2.17,0,3.24l1.07.11v.36h-4V27l1.06-.11c0-1.05,0-2.14,0-3.23v-.46c0-1.11,0-2.21,0-3.3h-1.45L187,21.72h-.62l0-2.25h6.95l0,2.25h-.61l-.54-1.84Z"/><path class="cls-1" d="M198.6,26.1a2.48,2.48,0,0,1-2.35,1.42,2.85,2.85,0,0,1-3-3.08,2.92,2.92,0,0,1,3-3,2.27,2.27,0,0,1,2.43,2.4,2.35,2.35,0,0,1-.06.64H195c.05,1.64.84,2.32,1.83,2.32a1.75,1.75,0,0,0,1.54-.8Zm-2.14-2c.49,0,.62-.24.62-.9,0-.92-.4-1.4-1-1.4s-1.05.65-1.1,2.28Z"/><path class="cls-1" d="M203.17,21.8l-.29,0c-.94,0-1.62.92-1.62,2.53s.77,2.46,1.89,2.46a1.78,1.78,0,0,0,1.44-.75l.21.14a2.53,2.53,0,0,1-2.4,1.36,2.84,2.84,0,0,1-2.94-3,3,3,0,0,1,3.19-3.06,2,2,0,0,1,2.17,1.67.67.67,0,0,1-.69.56c-.44,0-.81-.25-.85-1Z"/><path class="cls-1" d="M212.06,27v.33H209V27l.67-.06c0-.61,0-1.51,0-2.12V23.32c0-.82-.31-1.12-.77-1.12a1.86,1.86,0,0,0-1.18.57v2.06c0,.59,0,1.51,0,2.13l.61.05v.33h-3V27L206,27c0-.62,0-1.53,0-2.12V19.45l-.77-.07V19.1l2.33-.45.15.09,0,1.69v2a2.39,2.39,0,0,1,2-1.06c1,0,1.72.62,1.71,2.05v1.37c0,.62,0,1.52,0,2.13Z"/><path class="cls-1" d="M161,37.22l-.22,1.46h1.39v1.14h-1.56l-.29,2h-.53l.3-2h-1.89l-.29,2h-.52l.29-2h-1.35V38.68h1.53l.22-1.46h-1.36V36.07h1.53l.29-1.95h.51l-.29,1.95h1.9l.29-1.95h.52l-.29,1.95h1.4v1.15Zm-.51,0h-1.91l-.22,1.46h1.9Z"/><path class="cls-1" d="M170.17,38.44c0,1.44,0,2.11,0,2.92l1.08.1v.36h-4v-.36l1.06-.1c0-.75,0-1.37,0-2.62l-2.14-4.37-.58-.05v-.36h3.65v.36l-1,.11L169.94,38l1.62-3.56-1-.14v-.36H173v.36l-.86.13Z"/><path class="cls-1" d="M179.19,41.51v.32l-2.32.14-.05-1.05A2.59,2.59,0,0,1,174.87,42c-1.05,0-1.72-.57-1.69-2.17l0-3.13-.74-.15v-.28l2.34-.32.14.11-.07,1.72V40c0,.84.33,1.11.83,1.11a1.56,1.56,0,0,0,1.08-.5l0-3.9-.71-.14v-.23l2.29-.37.14.11,0,1.72v3.68Z"/><path class="cls-1" d="M186.61,41.49v.33h-3.05v-.33l.66-.06c0-.61,0-1.51,0-2.12V37.8c0-.82-.23-1.12-.73-1.12a2,2,0,0,0-1.2.6v2c0,.59,0,1.51,0,2.13l.6.05v.33h-3v-.33l.71-.06c0-.62,0-1.53,0-2.12v-.87c0-.69,0-1,0-1.54l-.79-.09v-.25l2.29-.66.15.1.06.93a2.44,2.44,0,0,1,2-1c1,0,1.68.65,1.68,2v1.39c0,.62,0,1.52,0,2.13Z"/><path class="cls-1" d="M190.84,34.37c0,1.08,0,2.18,0,3.29v.45c0,1.07,0,2.17,0,3.24l1.07.11v.36h-4v-.36l1.06-.1c0-1.05,0-2.14,0-3.23v-.46c0-1.11,0-2.21,0-3.3h-1.45L187,36.21h-.62l0-2.25h6.95l0,2.25h-.61l-.54-1.84Z"/><path class="cls-1" d="M198.6,40.58A2.48,2.48,0,0,1,196.25,42a2.86,2.86,0,0,1-3-3.08,2.93,2.93,0,0,1,3-3,2.27,2.27,0,0,1,2.43,2.4,2.34,2.34,0,0,1-.06.64H195c.05,1.64.84,2.32,1.83,2.32a1.75,1.75,0,0,0,1.54-.8Zm-2.14-2c.5,0,.62-.24.62-.9,0-.92-.4-1.4-1-1.4s-1.05.65-1.1,2.28Z"/><path class="cls-1" d="M203.16,36.29l-.3,0c-.94,0-1.62.92-1.62,2.53s.77,2.46,1.89,2.46a1.77,1.77,0,0,0,1.44-.75l.21.14a2.53,2.53,0,0,1-2.4,1.36,2.84,2.84,0,0,1-2.94-3,3,3,0,0,1,3.19-3.06,2.05,2.05,0,0,1,2.17,1.67.67.67,0,0,1-.69.56c-.44,0-.81-.25-.85-1Z"/><path class="cls-1" d="M212.06,41.5v.33H209V41.5l.67-.06c0-.61,0-1.51,0-2.12V37.81c0-.82-.31-1.12-.77-1.12a1.87,1.87,0,0,0-1.18.57v2.06c0,.59,0,1.5,0,2.13l.61.05v.33h-3V41.5l.69-.06c0-.62,0-1.53,0-2.12V33.93l-.77-.07v-.27l2.33-.45.15.09,0,1.69v2a2.39,2.39,0,0,1,2-1.06c1,0,1.71.62,1.71,2.05v1.37c0,.62,0,1.52,0,2.13Z"/></g></g></g></svg>